<svg width="430" height="932" viewBox="0 0 430 932" fill="none" xmlns="http://www.w3.org/2000/svg">
<rect x="0.5" y="0.5" width="429" height="931" rx="19.5" fill="white"/>
<rect width="430" height="430" transform="translate(0 164)" fill="white"/>
<path d="M220.569 423.991C188.193 423.991 188.193 372.63 220.569 372.63C252.944 372.63 252.973 423.991 220.569 423.991Z" fill="url(#paint0_radial_29_3)"/>
<path d="M117.646 370.149C118.194 373.394 142.837 386.312 161.922 393.081C164.812 394.105 145.326 408.125 114.193 403.576C93.6259 400.564 84.6461 372.369 68.7167 361.067C65.0418 358.458 105.391 350.696 122.062 352.093C151.194 354.577 168.842 388.547 163.478 385.178C140.688 370.926 117.335 368.302 117.646 370.149Z" fill="url(#paint1_linear_29_3)"/>
<path d="M175.291 315.45C192.635 331.811 191.583 346.01 199.493 360.645C200.974 363.429 177.69 363.242 154.451 341.049C139.091 326.383 146.867 297.751 139.802 278.948C138.158 274.593 175.735 292.168 188.68 303.148C211.401 322.448 207.684 361.003 205.062 355.046C193.879 329.758 189.88 320.022 175.291 315.45Z" fill="url(#paint2_linear_29_3)"/>
<path d="M329.528 327.392C326.744 325.618 300.154 336.786 281.929 347.677C279.175 349.312 282.166 323.859 307.098 301.677C323.502 287.007 350.699 299.039 370.094 293.825C374.535 292.606 352.505 330.847 339.995 343.358C318.068 365.355 280.611 356.423 286.815 354.356C313.064 345.579 331.112 328.394 329.528 327.392Z" fill="url(#paint3_linear_29_3)"/>
<path d="M326.777 428.048C325.477 425.296 299.994 420.528 281.06 419.713C278.193 419.59 292.234 401.675 321.456 397.185C340.76 394.202 355.984 416.976 373.189 422.712C376.811 423.912 343.554 441.919 327.369 445.425C300.467 451.238 275.961 425.695 281.666 427.218C305.774 433.692 327.487 429.617 326.777 428.048Z" fill="url(#paint4_linear_29_3)"/>
<path d="M362.661 379.145C361.817 377.002 342.905 371.883 328.687 370.141C326.54 369.879 338.092 357.205 360.351 355.556C375.057 354.476 385.26 372.515 397.923 377.896C400.885 379.129 373.872 390.693 362.128 392.281C341.542 395.056 324.511 374.335 328.717 375.876C346.548 382.151 363.135 380.363 362.661 379.145Z" fill="url(#paint5_linear_29_3)"/>
<path d="M299.557 265.872C296.807 265.717 281.358 285.172 271.985 300.917C270.507 303.292 263.115 283.014 273.05 256.044C279.628 238.219 304.391 235.859 316.794 223.841C319.381 221.372 318.154 258 313.364 273.527C305.5 299.147 274.292 308.121 278.091 303.975C294.279 286.368 301.124 265.95 299.557 265.872Z" fill="url(#paint6_linear_29_3)"/>
<path d="M192.69 244.551C190.95 246.423 194.386 268.954 199.057 284.971C199.756 287.385 182.054 280.7 170.421 257.627C162.73 242.384 175.999 223.335 175.598 207.38C175.494 203.728 199.027 227.296 205.9 239.212C217.905 259.994 205.082 287.539 204.68 282.386C202.895 260.443 193.687 243.498 192.69 244.551Z" fill="url(#paint7_linear_29_3)"/>
<path d="M237.849 241.387C239.756 242.934 238.988 265.541 236.267 281.851C235.853 284.311 252.367 275.538 261.075 251.429C266.84 235.491 251.717 218.439 250.268 202.733C249.854 197.998 228.728 227.491 224.337 237.781C215.008 259.677 230.679 285.132 230.502 280.01C229.718 258.222 236.755 240.443 237.849 241.387Z" fill="url(#paint8_linear_29_3)"/>
<path d="M140.663 244.259C140.101 245.685 146.588 257.23 152.35 264.938C153.224 266.113 142.337 266.504 131.347 256.431C124.103 249.82 127.347 236.411 123.866 227.763C122.815 225.163 141.641 234.312 146.677 238.369C157.386 247.048 156.127 265 154.839 262.274C149.403 250.682 140.975 243.46 140.663 244.259Z" fill="url(#paint9_linear_29_3)"/>
<path d="M103.322 300.386C115.609 308.699 115.815 320.711 126.022 332.739C82.7009 348.125 84.7217 286.934 75.8716 274.783C75.2226 273.916 76.1519 273.808 76.5796 273.931C89.2943 277.708 105.505 281.671 115.756 289.04C134.15 302.151 132.276 332.383 129.931 328.11C119.901 309.689 111.434 300.371 103.322 300.386Z" fill="url(#paint10_linear_29_3)"/>
<path d="M57.8496 409.558C59.1055 408.204 74.6485 410.569 85.6851 413.93C87.3547 414.428 82.5824 401.171 66.5963 392.643C56.0472 387.01 43.0898 397.202 32.1122 397.062C29.5857 397.062 46.0743 414.522 54.2742 419.548C68.6795 428.371 87.4729 418.443 83.9269 418.179C68.8716 417.074 57.1257 410.305 57.8496 409.558Z" fill="url(#paint11_linear_29_3)"/>
<path d="M59.168 321.586C59.168 323.243 70.2372 332.233 79.1459 337.603C80.4926 338.416 69.379 343.31 54.2105 337.787C44.2068 334.151 42.3718 319.223 35.5201 311.936C33.9367 310.264 54.9209 310.647 63.134 313.102C77.5033 317.382 83.0527 336.115 80.6998 333.844C70.6072 324.394 59.1976 320.635 59.168 321.586Z" fill="url(#paint12_linear_29_3)"/>
<path d="M247.723 317.626C245.747 317.874 237.061 333.846 232.268 346.357C231.56 348.251 223.759 334.747 227.608 314.117C230.159 300.489 247.546 295.491 254.949 285.262C257.175 282.157 259.682 312.115 258.488 321.211C255.966 340.583 234.775 351.154 237.002 347.692C246.44 332.961 248.843 317.47 247.723 317.626Z" fill="url(#paint13_linear_29_3)"/>
<path d="M104.719 447.008C120.422 441.848 130.313 447.585 146.002 444.374C148.538 443.859 142.087 457.593 118.895 471.451C103.562 480.618 83.6172 466.463 67.3055 467.492C63.4797 467.741 86.9537 440.476 98.7871 432.432C119.547 418.247 149.101 430.39 143.837 431.045C121.416 433.836 110.235 440.102 104.719 447.008Z" fill="url(#paint14_linear_29_3)"/>
<path d="M268.045 345.556C273.177 401.507 252.042 432.136 231.218 434.494C199.095 438.11 182.634 413.253 136.565 439.444C170.256 429.917 188.328 445.418 192.07 458.994C198.282 481.617 184.321 515.364 196.611 551.796C212.983 458.203 301.454 481.555 268.045 345.556Z" fill="url(#paint15_linear_29_3)"/>
<path d="M199.074 555.778C208.265 495.5 264.525 484.388 268.75 446.287C264.525 519.353 241.161 493.529 199.074 555.778Z" fill="url(#paint16_linear_29_3)"/>
<path d="M258 500.037C242.656 527.357 219.276 526.752 205.046 555.778C226.807 530.365 252.118 543.947 258 500.037Z" fill="url(#paint17_linear_29_3)"/>
<path d="M152.3 827.66C151.56 827.66 150.84 827.54 150.14 827.3C149.46 827.04 148.8 826.64 148.16 826.1C147.54 825.54 146.93 824.81 146.33 823.91L148.22 822.62C148.9 823.64 149.54 824.37 150.14 824.81C150.74 825.25 151.42 825.47 152.18 825.47C153 825.47 153.67 825.16 154.19 824.54C154.71 823.92 154.97 822.9 154.97 821.48C154.97 819.94 154.67 818.83 154.07 818.15C153.49 817.45 152.68 817.1 151.64 817.1C151.02 817.1 150.43 817.18 149.87 817.34C149.31 817.48 148.81 817.67 148.37 817.91L147.62 815.9C148.28 815.56 148.97 815.31 149.69 815.15C150.43 814.99 151.12 814.91 151.76 814.91C152.88 814.91 153.86 815.15 154.7 815.63C155.54 816.09 156.2 816.81 156.68 817.79C157.16 818.75 157.4 819.99 157.4 821.51C157.4 822.79 157.24 823.83 156.92 824.63C156.62 825.43 156.22 826.05 155.72 826.49C155.22 826.93 154.67 827.24 154.07 827.42C153.47 827.58 152.88 827.66 152.3 827.66ZM164.81 833C163.95 833 163.23 832.91 162.65 832.73C162.09 832.53 161.64 832.25 161.3 831.89C160.98 831.55 160.74 831.13 160.58 830.63C160.44 830.13 160.37 829.44 160.37 828.56V814.91L162.77 815.24V828.44C162.77 828.98 162.8 829.38 162.86 829.64C162.92 829.88 163.01 830.08 163.13 830.24C163.35 830.52 163.67 830.69 164.09 830.75C164.53 830.79 164.96 830.81 165.38 830.81L165.14 833H164.81ZM172.799 833C171.939 833 171.229 832.91 170.669 832.73C170.109 832.53 169.649 832.25 169.289 831.89C168.949 831.55 168.699 831.13 168.539 830.63C168.399 830.13 168.329 829.44 168.329 828.56V814.91L170.729 815.21V828.44C170.729 829 170.759 829.4 170.819 829.64C170.879 829.88 170.999 830.1 171.179 830.3C171.399 830.56 171.699 830.71 172.079 830.75C172.479 830.79 172.899 830.81 173.339 830.81L173.099 833H172.799ZM190.608 833C189.748 833 189.028 832.91 188.448 832.73C187.888 832.53 187.438 832.25 187.098 831.89C186.778 831.55 186.538 831.13 186.378 830.63C186.238 830.13 186.168 829.44 186.168 828.56V814.91L188.568 815.24V828.44C188.568 828.98 188.598 829.38 188.658 829.64C188.718 829.88 188.808 830.08 188.928 830.24C189.148 830.52 189.468 830.69 189.888 830.75C190.328 830.79 190.748 830.81 191.148 830.81L190.938 833H190.608ZM178.548 828.44C178.148 828.44 177.748 828.33 177.348 828.11C176.948 827.87 176.578 827.57 176.238 827.21C175.898 826.83 175.618 826.43 175.398 826.01C175.198 825.57 175.098 825.16 175.098 824.78C175.098 824.44 175.228 824.15 175.488 823.91C175.748 823.65 176.178 823.52 176.778 823.52H186.528V825.68H179.898V826.55C179.898 827.23 179.758 827.72 179.478 828.02C179.198 828.3 178.888 828.44 178.548 828.44ZM177.498 824V819.8C177.498 819.24 177.468 818.84 177.408 818.6C177.348 818.36 177.258 818.16 177.138 818C176.938 817.72 176.618 817.55 176.178 817.49C175.738 817.43 175.308 817.4 174.888 817.4L175.128 815.24H175.458C176.318 815.24 177.028 815.33 177.588 815.51C178.168 815.69 178.628 815.96 178.968 816.32C179.188 816.54 179.368 816.8 179.508 817.1C179.648 817.4 179.748 817.76 179.808 818.18C179.868 818.58 179.898 819.08 179.898 819.68V824H177.498ZM199.301 833.3C197.501 833.3 195.991 832.86 194.771 831.98C193.571 831.1 192.531 829.99 191.651 828.65L193.751 827.36C194.691 828.78 195.591 829.76 196.451 830.3C197.311 830.84 198.231 831.11 199.211 831.11C200.171 831.11 200.931 830.89 201.491 830.45C202.051 829.99 202.331 829.34 202.331 828.5C202.331 827.92 202.221 827.41 202.001 826.97C201.781 826.53 201.401 826.09 200.861 825.65C200.321 825.19 199.571 824.68 198.611 824.12C197.651 823.54 196.881 822.99 196.301 822.47C195.741 821.95 195.341 821.41 195.101 820.85C194.861 820.29 194.741 819.68 194.741 819.02C194.741 817.84 195.191 816.86 196.091 816.08C197.011 815.3 198.301 814.91 199.961 814.91C200.481 814.91 201.001 814.94 201.521 815C202.041 815.04 202.571 815.13 203.111 815.27L202.661 817.37C202.141 817.25 201.671 817.18 201.251 817.16C200.831 817.12 200.391 817.1 199.931 817.1C199.031 817.1 198.341 817.28 197.861 817.64C197.401 817.98 197.171 818.46 197.171 819.08C197.171 819.5 197.271 819.87 197.471 820.19C197.671 820.49 198.001 820.81 198.461 821.15C198.941 821.47 199.581 821.88 200.381 822.38C201.421 823 202.271 823.61 202.931 824.21C203.591 824.81 204.081 825.45 204.401 826.13C204.721 826.79 204.881 827.55 204.881 828.41C204.881 829.87 204.401 831.05 203.441 831.95C202.501 832.85 201.121 833.3 199.301 833.3ZM212.994 833C212.134 833 211.424 832.91 210.864 832.73C210.304 832.53 209.844 832.25 209.484 831.89C209.144 831.55 208.894 831.13 208.734 830.63C208.594 830.13 208.524 829.44 208.524 828.56V814.91L210.924 815.21V828.44C210.924 829 210.954 829.4 211.014 829.64C211.074 829.88 211.194 830.1 211.374 830.3C211.594 830.56 211.894 830.71 212.274 830.75C212.674 830.79 213.094 830.81 213.534 830.81L213.294 833H212.994ZM229.364 833C228.664 833 228.004 832.93 227.384 832.79C226.784 832.63 226.274 832.33 225.854 831.89C225.474 831.49 225.224 831.05 225.104 830.57C224.984 830.07 224.924 829.4 224.924 828.56V814.91L227.324 815.24V828.44C227.324 828.98 227.354 829.38 227.414 829.64C227.474 829.88 227.564 830.08 227.684 830.24C227.904 830.52 228.224 830.69 228.644 830.75C229.064 830.79 229.484 830.81 229.904 830.81L229.664 833H229.364ZM217.964 826.58C217.604 826.58 217.214 826.46 216.794 826.22C216.394 825.96 216.014 825.63 215.654 825.23C215.314 824.83 215.034 824.4 214.814 823.94C214.594 823.46 214.484 823 214.484 822.56C214.484 822.1 214.614 821.73 214.874 821.45C215.154 821.15 215.624 821 216.284 821H226.004V823.16H219.494V824.87C219.494 825.45 219.354 825.88 219.074 826.16C218.794 826.44 218.424 826.58 217.964 826.58ZM237.311 833C236.451 833 235.741 832.91 235.181 832.73C234.621 832.53 234.161 832.25 233.801 831.89C233.461 831.55 233.211 831.13 233.051 830.63C232.911 830.13 232.841 829.44 232.841 828.56V814.91L235.241 815.21V828.44C235.241 829 235.271 829.4 235.331 829.64C235.391 829.88 235.511 830.1 235.691 830.3C235.911 830.56 236.211 830.71 236.591 830.75C236.991 830.79 237.411 830.81 237.851 830.81L237.611 833H237.311ZM232.901 813.77C232.541 812.45 232.161 811.39 231.761 810.59C231.381 809.77 230.941 809.18 230.441 808.82C229.961 808.46 229.371 808.28 228.671 808.28C228.451 808.28 228.201 808.3 227.921 808.34C227.641 808.38 227.371 808.45 227.111 808.55L226.391 806.48C226.811 806.34 227.231 806.25 227.651 806.21C228.071 806.15 228.461 806.12 228.821 806.12C229.521 806.12 230.171 806.23 230.771 806.45C231.371 806.65 231.921 807.03 232.421 807.59C232.921 808.13 233.391 808.9 233.831 809.9C234.271 810.9 234.671 812.19 235.031 813.77H232.901Z" fill="#303030"/>
<path d="M255.204 828.17C254.064 828.17 253.054 827.96 252.174 827.54C251.294 827.12 250.534 826.53 249.894 825.77C249.274 824.99 248.764 824.07 248.364 823.01C249.564 822.67 250.514 822.22 251.214 821.66C251.934 821.1 252.294 820.36 252.294 819.44C252.294 818.7 252.044 818.12 251.544 817.7C251.064 817.28 250.404 817.07 249.564 817.07C249.204 817.07 248.914 817.09 248.694 817.13C248.494 817.15 248.274 817.18 248.034 817.22L247.494 815.18C247.714 815.12 247.994 815.06 248.334 815C248.694 814.94 249.154 814.91 249.714 814.91C250.734 814.91 251.614 815.09 252.354 815.45C253.114 815.79 253.694 816.3 254.094 816.98C254.514 817.64 254.724 818.45 254.724 819.41C254.724 820.61 254.364 821.61 253.644 822.41C252.944 823.21 252.004 823.84 250.824 824.3L251.334 823.73C251.594 824.33 252.054 824.86 252.714 825.32C253.374 825.78 254.184 826.01 255.144 826.01C256.184 826.01 257.074 825.81 257.814 825.41C258.574 825.01 259.204 824.54 259.704 824V826.73C259.144 827.15 258.514 827.5 257.814 827.78C257.114 828.04 256.244 828.17 255.204 828.17ZM259.644 834.29V814.91L262.074 815.24V834.29H259.644ZM260.027 841.04C258.727 841.04 257.547 840.83 256.487 840.41C255.427 840.01 254.457 839.43 253.577 838.67C252.697 837.91 251.857 837.02 251.057 836L252.917 834.71C253.697 835.67 254.447 836.46 255.167 837.08C255.867 837.7 256.607 838.15 257.387 838.43C258.167 838.73 259.047 838.88 260.027 838.88C261.147 838.88 261.957 838.7 262.457 838.34C262.937 838 263.177 837.49 263.177 836.81C263.177 836.21 262.957 835.76 262.517 835.46C262.057 835.18 261.477 835.04 260.777 835.04C260.237 835.04 259.757 835.09 259.337 835.19C258.917 835.31 258.497 835.48 258.077 835.7L257.297 833.69C257.817 833.47 258.367 833.3 258.947 833.18C259.507 833.06 260.067 833 260.627 833C262.167 833 263.347 833.37 264.167 834.11C264.987 834.85 265.397 835.83 265.397 837.05C265.397 838.21 264.947 839.16 264.047 839.9C263.147 840.66 261.807 841.04 260.027 841.04ZM271.187 827.66C270.447 827.66 269.727 827.54 269.027 827.3C268.347 827.04 267.687 826.64 267.047 826.1C266.427 825.54 265.817 824.81 265.217 823.91L267.107 822.62C267.787 823.64 268.427 824.37 269.027 824.81C269.627 825.25 270.307 825.47 271.067 825.47C271.887 825.47 272.557 825.16 273.077 824.54C273.597 823.92 273.857 822.9 273.857 821.48C273.857 819.94 273.557 818.83 272.957 818.15C272.377 817.45 271.567 817.1 270.527 817.1C269.907 817.1 269.317 817.18 268.757 817.34C268.197 817.48 267.697 817.67 267.257 817.91L266.507 815.9C267.167 815.56 267.857 815.31 268.577 815.15C269.317 814.99 270.007 814.91 270.647 814.91C271.767 814.91 272.747 815.15 273.587 815.63C274.427 816.09 275.087 816.81 275.567 817.79C276.047 818.75 276.287 819.99 276.287 821.51C276.287 822.79 276.127 823.83 275.807 824.63C275.507 825.43 275.107 826.05 274.607 826.49C274.107 826.93 273.557 827.24 272.957 827.42C272.357 827.58 271.767 827.66 271.187 827.66ZM283.697 833C282.837 833 282.117 832.91 281.537 832.73C280.977 832.53 280.527 832.25 280.187 831.89C279.867 831.55 279.627 831.13 279.467 830.63C279.327 830.13 279.257 829.44 279.257 828.56V814.91L281.657 815.24V828.44C281.657 828.98 281.687 829.38 281.747 829.64C281.807 829.88 281.897 830.08 282.017 830.24C282.237 830.52 282.557 830.69 282.977 830.75C283.417 830.79 283.847 830.81 284.267 830.81L284.027 833H283.697Z" fill="#00930F"/>
<rect x="0.5" y="0.5" width="429" height="931" rx="19.5" stroke="#303030"/>
<defs>
<radialGradient id="paint0_radial_29_3" cx="0" cy="0" r="1" gradientUnits="userSpaceOnUse" gradientTransform="translate(217.846 373.74) scale(65.4865 68.6563)">
<stop stop-color="#C3996B"/>
<stop offset="0.37" stop-color="#A1774E"/>
<stop offset="0.77" stop-color="#815832"/>
<stop offset="1" stop-color="#754C28"/>
</radialGradient>
<linearGradient id="paint1_linear_29_3" x1="68.4796" y1="378.207" x2="164.456" y2="378.207" gradientUnits="userSpaceOnUse">
<stop stop-color="#F6921E"/>
<stop offset="0.18" stop-color="#F58620"/>
<stop offset="0.71" stop-color="#F16626"/>
<stop offset="1" stop-color="#F05A28"/>
</linearGradient>
<linearGradient id="paint2_linear_29_3" x1="146.097" y1="280.161" x2="203.508" y2="363.533" gradientUnits="userSpaceOnUse">
<stop stop-color="#98C93C"/>
<stop offset="1" stop-color="#009345"/>
</linearGradient>
<linearGradient id="paint3_linear_29_3" x1="364.112" y1="290.663" x2="282.626" y2="349.793" gradientUnits="userSpaceOnUse">
<stop stop-color="#A2238D"/>
<stop offset="0.17" stop-color="#91268E"/>
<stop offset="0.48" stop-color="#792A8F"/>
<stop offset="0.76" stop-color="#6A2C90"/>
<stop offset="1" stop-color="#652D90"/>
</linearGradient>
<linearGradient id="paint4_linear_29_3" x1="370.263" y1="415.039" x2="270.006" y2="427.785" gradientUnits="userSpaceOnUse">
<stop stop-color="#ED3024"/>
<stop offset="1" stop-color="#AD1B1F"/>
</linearGradient>
<linearGradient id="paint5_linear_29_3" x1="399.014" y1="368.284" x2="333.976" y2="377.038" gradientUnits="userSpaceOnUse">
<stop stop-color="#F6921E"/>
<stop offset="0.18" stop-color="#F58620"/>
<stop offset="0.71" stop-color="#F16626"/>
<stop offset="1" stop-color="#F05A28"/>
</linearGradient>
<linearGradient id="paint6_linear_29_3" x1="316.144" y1="223.562" x2="267.652" y2="303.655" gradientUnits="userSpaceOnUse">
<stop stop-color="#98C93C"/>
<stop offset="1" stop-color="#009345"/>
</linearGradient>
<linearGradient id="paint7_linear_29_3" x1="174.765" y1="209.717" x2="209.807" y2="301.687" gradientUnits="userSpaceOnUse">
<stop stop-color="#1FC3F3"/>
<stop offset="0.17" stop-color="#1EB5E8"/>
<stop offset="0.48" stop-color="#1D8FCC"/>
<stop offset="0.92" stop-color="#1B549F"/>
<stop offset="1" stop-color="#1A4796"/>
</linearGradient>
<linearGradient id="paint8_linear_29_3" x1="251.938" y1="200.35" x2="229.963" y2="294.112" gradientUnits="userSpaceOnUse">
<stop stop-color="#F6921E"/>
<stop offset="0.18" stop-color="#F58620"/>
<stop offset="0.71" stop-color="#F16626"/>
<stop offset="1" stop-color="#F05A28"/>
</linearGradient>
<linearGradient id="paint9_linear_29_3" x1="122.953" y1="228.004" x2="161.097" y2="269.145" gradientUnits="userSpaceOnUse">
<stop stop-color="#A2238D"/>
<stop offset="0.17" stop-color="#91268E"/>
<stop offset="0.48" stop-color="#792A8F"/>
<stop offset="0.76" stop-color="#6A2C90"/>
<stop offset="1" stop-color="#652D90"/>
</linearGradient>
<linearGradient id="paint10_linear_29_3" x1="75.6061" y1="304.535" x2="131.347" y2="304.535" gradientUnits="userSpaceOnUse">
<stop stop-color="#EC1C24"/>
<stop offset="1" stop-color="#AD1B1F"/>
</linearGradient>
<linearGradient id="paint11_linear_29_3" x1="30.3246" y1="394.531" x2="92.0529" y2="412.506" gradientUnits="userSpaceOnUse">
<stop stop-color="#A2238D"/>
<stop offset="0.17" stop-color="#91268E"/>
<stop offset="0.48" stop-color="#792A8F"/>
<stop offset="0.76" stop-color="#6A2C90"/>
<stop offset="1" stop-color="#652D90"/>
</linearGradient>
<linearGradient id="paint12_linear_29_3" x1="32.542" y1="310.158" x2="83.3417" y2="337.447" gradientUnits="userSpaceOnUse">
<stop stop-color="#98C93C"/>
<stop offset="1" stop-color="#009345"/>
</linearGradient>
<linearGradient id="paint13_linear_29_3" x1="249.949" y1="287.59" x2="232.325" y2="357.512" gradientUnits="userSpaceOnUse">
<stop stop-color="#1FC3F3"/>
<stop offset="0.17" stop-color="#1EB5E8"/>
<stop offset="0.48" stop-color="#1D8FCC"/>
<stop offset="0.92" stop-color="#1B549F"/>
<stop offset="1" stop-color="#1A4796"/>
</linearGradient>
<linearGradient id="paint14_linear_29_3" x1="77.768" y1="465.42" x2="148.522" y2="437.18" gradientUnits="userSpaceOnUse">
<stop stop-color="#98C93C"/>
<stop offset="1" stop-color="#009345"/>
</linearGradient>
<linearGradient id="paint15_linear_29_3" x1="212.717" y1="379.04" x2="176.065" y2="601.608" gradientUnits="userSpaceOnUse">
<stop stop-color="#C3996B"/>
<stop offset="0.37" stop-color="#A1774E"/>
<stop offset="0.77" stop-color="#815832"/>
<stop offset="1" stop-color="#754C28"/>
</linearGradient>
<linearGradient id="paint16_linear_29_3" x1="239.62" y1="455.288" x2="226.138" y2="558.419" gradientUnits="userSpaceOnUse">
<stop stop-color="#98C93C"/>
<stop offset="1" stop-color="#009345"/>
</linearGradient>
<linearGradient id="paint17_linear_29_3" x1="249.771" y1="490.579" x2="202.434" y2="588.526" gradientUnits="userSpaceOnUse">
<stop stop-color="#98C93C"/>
<stop offset="1" stop-color="#009345"/>
</linearGradient>
</defs>
</svg>
