<svg width="430" height="932" viewBox="0 0 430 932" fill="none" xmlns="http://www.w3.org/2000/svg">
<rect x="0.5" y="0.5" width="429" height="931" rx="19.5" fill="white"/>
<path d="M23.3 43.66C22.56 43.66 21.84 43.54 21.14 43.3C20.46 43.04 19.8 42.64 19.16 42.1C18.54 41.54 17.93 40.81 17.33 39.91L19.22 38.62C19.9 39.64 20.54 40.37 21.14 40.81C21.74 41.25 22.42 41.47 23.18 41.47C24 41.47 24.67 41.16 25.19 40.54C25.71 39.92 25.97 38.9 25.97 37.48C25.97 35.94 25.67 34.83 25.07 34.15C24.49 33.45 23.68 33.1 22.64 33.1C22.02 33.1 21.43 33.18 20.87 33.34C20.31 33.48 19.81 33.67 19.37 33.91L18.62 31.9C19.28 31.56 19.97 31.31 20.69 31.15C21.43 30.99 22.12 30.91 22.76 30.91C23.88 30.91 24.86 31.15 25.7 31.63C26.54 32.09 27.2 32.81 27.68 33.79C28.16 34.75 28.4 35.99 28.4 37.51C28.4 38.79 28.24 39.83 27.92 40.63C27.62 41.43 27.22 42.05 26.72 42.49C26.22 42.93 25.67 43.24 25.07 43.42C24.47 43.58 23.88 43.66 23.3 43.66ZM35.81 49C34.95 49 34.23 48.91 33.65 48.73C33.09 48.53 32.64 48.25 32.3 47.89C31.98 47.55 31.74 47.13 31.58 46.63C31.44 46.13 31.37 45.44 31.37 44.56V30.91L33.77 31.24V44.44C33.77 44.98 33.8 45.38 33.86 45.64C33.92 45.88 34.01 46.08 34.13 46.24C34.35 46.52 34.67 46.69 35.09 46.75C35.53 46.79 35.96 46.81 36.38 46.81L36.14 49H35.81ZM43.7989 49C42.9389 49 42.2289 48.91 41.6689 48.73C41.1089 48.53 40.6489 48.25 40.2889 47.89C39.9489 47.55 39.6989 47.13 39.5389 46.63C39.3989 46.13 39.3289 45.44 39.3289 44.56V30.91L41.7289 31.21V44.44C41.7289 45 41.7589 45.4 41.8189 45.64C41.8789 45.88 41.9989 46.1 42.1789 46.3C42.3989 46.56 42.6989 46.71 43.0789 46.75C43.4789 46.79 43.8989 46.81 44.3389 46.81L44.0989 49H43.7989ZM61.6084 49C60.7484 49 60.0284 48.91 59.4484 48.73C58.8884 48.53 58.4384 48.25 58.0984 47.89C57.7784 47.55 57.5384 47.13 57.3784 46.63C57.2384 46.13 57.1684 45.44 57.1684 44.56V30.91L59.5684 31.24V44.44C59.5684 44.98 59.5984 45.38 59.6584 45.64C59.7184 45.88 59.8084 46.08 59.9284 46.24C60.1484 46.52 60.4684 46.69 60.8884 46.75C61.3284 46.79 61.7484 46.81 62.1484 46.81L61.9384 49H61.6084ZM49.5484 44.44C49.1484 44.44 48.7484 44.33 48.3484 44.11C47.9484 43.87 47.5784 43.57 47.2384 43.21C46.8984 42.83 46.6184 42.43 46.3984 42.01C46.1984 41.57 46.0984 41.16 46.0984 40.78C46.0984 40.44 46.2284 40.15 46.4884 39.91C46.7484 39.65 47.1784 39.52 47.7784 39.52H57.5284V41.68H50.8984V42.55C50.8984 43.23 50.7584 43.72 50.4784 44.02C50.1984 44.3 49.8884 44.44 49.5484 44.44ZM48.4984 40V35.8C48.4984 35.24 48.4684 34.84 48.4084 34.6C48.3484 34.36 48.2584 34.16 48.1384 34C47.9384 33.72 47.6184 33.55 47.1784 33.49C46.7384 33.43 46.3084 33.4 45.8884 33.4L46.1284 31.24H46.4584C47.3184 31.24 48.0284 31.33 48.5884 31.51C49.1684 31.69 49.6284 31.96 49.9684 32.32C50.1884 32.54 50.3684 32.8 50.5084 33.1C50.6484 33.4 50.7484 33.76 50.8084 34.18C50.8684 34.58 50.8984 35.08 50.8984 35.68V40H48.4984ZM70.3009 49.3C68.5009 49.3 66.9909 48.86 65.7709 47.98C64.5709 47.1 63.5309 45.99 62.6509 44.65L64.7509 43.36C65.6909 44.78 66.5909 45.76 67.4509 46.3C68.3109 46.84 69.2309 47.11 70.2109 47.11C71.1709 47.11 71.9309 46.89 72.4909 46.45C73.0509 45.99 73.3309 45.34 73.3309 44.5C73.3309 43.92 73.2209 43.41 73.0009 42.97C72.7809 42.53 72.4009 42.09 71.8609 41.65C71.3209 41.19 70.5709 40.68 69.6109 40.12C68.6509 39.54 67.8809 38.99 67.3009 38.47C66.7409 37.95 66.3409 37.41 66.1009 36.85C65.8609 36.29 65.7409 35.68 65.7409 35.02C65.7409 33.84 66.1909 32.86 67.0909 32.08C68.0109 31.3 69.3009 30.91 70.9609 30.91C71.4809 30.91 72.0009 30.94 72.5209 31C73.0409 31.04 73.5709 31.13 74.1109 31.27L73.6609 33.37C73.1409 33.25 72.6709 33.18 72.2509 33.16C71.8309 33.12 71.3909 33.1 70.9309 33.1C70.0309 33.1 69.3409 33.28 68.8609 33.64C68.4009 33.98 68.1709 34.46 68.1709 35.08C68.1709 35.5 68.2709 35.87 68.4709 36.19C68.6709 36.49 69.0009 36.81 69.4609 37.15C69.9409 37.47 70.5809 37.88 71.3809 38.38C72.4209 39 73.2709 39.61 73.9309 40.21C74.5909 40.81 75.0809 41.45 75.4009 42.13C75.7209 42.79 75.8809 43.55 75.8809 44.41C75.8809 45.87 75.4009 47.05 74.4409 47.95C73.5009 48.85 72.1209 49.3 70.3009 49.3ZM83.9942 49C83.1342 49 82.4242 48.91 81.8642 48.73C81.3042 48.53 80.8442 48.25 80.4842 47.89C80.1442 47.55 79.8942 47.13 79.7342 46.63C79.5942 46.13 79.5242 45.44 79.5242 44.56V30.91L81.9242 31.21V44.44C81.9242 45 81.9542 45.4 82.0142 45.64C82.0742 45.88 82.1942 46.1 82.3742 46.3C82.5942 46.56 82.8942 46.71 83.2742 46.75C83.6742 46.79 84.0942 46.81 84.5342 46.81L84.2942 49H83.9942ZM100.364 49C99.6637 49 99.0037 48.93 98.3837 48.79C97.7837 48.63 97.2737 48.33 96.8537 47.89C96.4737 47.49 96.2237 47.05 96.1037 46.57C95.9837 46.07 95.9237 45.4 95.9237 44.56V30.91L98.3237 31.24V44.44C98.3237 44.98 98.3537 45.38 98.4137 45.64C98.4737 45.88 98.5637 46.08 98.6837 46.24C98.9037 46.52 99.2237 46.69 99.6437 46.75C100.064 46.79 100.484 46.81 100.904 46.81L100.664 49H100.364ZM88.9637 42.58C88.6037 42.58 88.2137 42.46 87.7937 42.22C87.3937 41.96 87.0137 41.63 86.6537 41.23C86.3137 40.83 86.0337 40.4 85.8137 39.94C85.5937 39.46 85.4837 39 85.4837 38.56C85.4837 38.1 85.6137 37.73 85.8737 37.45C86.1537 37.15 86.6237 37 87.2837 37H97.0037V39.16H90.4937V40.87C90.4937 41.45 90.3537 41.88 90.0737 42.16C89.7937 42.44 89.4237 42.58 88.9637 42.58ZM108.311 49C107.451 49 106.741 48.91 106.181 48.73C105.621 48.53 105.161 48.25 104.801 47.89C104.461 47.55 104.211 47.13 104.051 46.63C103.911 46.13 103.841 45.44 103.841 44.56V30.91L106.241 31.21V44.44C106.241 45 106.271 45.4 106.331 45.64C106.391 45.88 106.511 46.1 106.691 46.3C106.911 46.56 107.211 46.71 107.591 46.75C107.991 46.79 108.411 46.81 108.851 46.81L108.611 49H108.311ZM103.901 29.77C103.541 28.45 103.161 27.39 102.761 26.59C102.381 25.77 101.941 25.18 101.441 24.82C100.961 24.46 100.371 24.28 99.6706 24.28C99.4506 24.28 99.2006 24.3 98.9206 24.34C98.6406 24.38 98.3706 24.45 98.1106 24.55L97.3906 22.48C97.8106 22.34 98.2306 22.25 98.6506 22.21C99.0706 22.15 99.4606 22.12 99.8206 22.12C100.521 22.12 101.171 22.23 101.771 22.45C102.371 22.65 102.921 23.03 103.421 23.59C103.921 24.13 104.391 24.9 104.831 25.9C105.271 26.9 105.671 28.19 106.031 29.77H103.901Z" fill="#303030"/>
<path d="M126.204 44.17C125.064 44.17 124.054 43.96 123.174 43.54C122.294 43.12 121.534 42.53 120.894 41.77C120.274 40.99 119.764 40.07 119.364 39.01C120.564 38.67 121.514 38.22 122.214 37.66C122.934 37.1 123.294 36.36 123.294 35.44C123.294 34.7 123.044 34.12 122.544 33.7C122.064 33.28 121.404 33.07 120.564 33.07C120.204 33.07 119.914 33.09 119.694 33.13C119.494 33.15 119.274 33.18 119.034 33.22L118.494 31.18C118.714 31.12 118.994 31.06 119.334 31C119.694 30.94 120.154 30.91 120.714 30.91C121.734 30.91 122.614 31.09 123.354 31.45C124.114 31.79 124.694 32.3 125.094 32.98C125.514 33.64 125.724 34.45 125.724 35.41C125.724 36.61 125.364 37.61 124.644 38.41C123.944 39.21 123.004 39.84 121.824 40.3L122.334 39.73C122.594 40.33 123.054 40.86 123.714 41.32C124.374 41.78 125.184 42.01 126.144 42.01C127.184 42.01 128.074 41.81 128.814 41.41C129.574 41.01 130.204 40.54 130.704 40V42.73C130.144 43.15 129.514 43.5 128.814 43.78C128.114 44.04 127.244 44.17 126.204 44.17ZM130.644 50.29V30.91L133.074 31.24V50.29H130.644ZM131.027 57.04C129.727 57.04 128.547 56.83 127.487 56.41C126.427 56.01 125.457 55.43 124.577 54.67C123.697 53.91 122.857 53.02 122.057 52L123.917 50.71C124.697 51.67 125.447 52.46 126.167 53.08C126.867 53.7 127.607 54.15 128.387 54.43C129.167 54.73 130.047 54.88 131.027 54.88C132.147 54.88 132.957 54.7 133.457 54.34C133.937 54 134.177 53.49 134.177 52.81C134.177 52.21 133.957 51.76 133.517 51.46C133.057 51.18 132.477 51.04 131.777 51.04C131.237 51.04 130.757 51.09 130.337 51.19C129.917 51.31 129.497 51.48 129.077 51.7L128.297 49.69C128.817 49.47 129.367 49.3 129.947 49.18C130.507 49.06 131.067 49 131.627 49C133.167 49 134.347 49.37 135.167 50.11C135.987 50.85 136.397 51.83 136.397 53.05C136.397 54.21 135.947 55.16 135.047 55.9C134.147 56.66 132.807 57.04 131.027 57.04ZM142.187 43.66C141.447 43.66 140.727 43.54 140.027 43.3C139.347 43.04 138.687 42.64 138.047 42.1C137.427 41.54 136.817 40.81 136.217 39.91L138.107 38.62C138.787 39.64 139.427 40.37 140.027 40.81C140.627 41.25 141.307 41.47 142.067 41.47C142.887 41.47 143.557 41.16 144.077 40.54C144.597 39.92 144.857 38.9 144.857 37.48C144.857 35.94 144.557 34.83 143.957 34.15C143.377 33.45 142.567 33.1 141.527 33.1C140.907 33.1 140.317 33.18 139.757 33.34C139.197 33.48 138.697 33.67 138.257 33.91L137.507 31.9C138.167 31.56 138.857 31.31 139.577 31.15C140.317 30.99 141.007 30.91 141.647 30.91C142.767 30.91 143.747 31.15 144.587 31.63C145.427 32.09 146.087 32.81 146.567 33.79C147.047 34.75 147.287 35.99 147.287 37.51C147.287 38.79 147.127 39.83 146.807 40.63C146.507 41.43 146.107 42.05 145.607 42.49C145.107 42.93 144.557 43.24 143.957 43.42C143.357 43.58 142.767 43.66 142.187 43.66ZM154.697 49C153.837 49 153.117 48.91 152.537 48.73C151.977 48.53 151.527 48.25 151.187 47.89C150.867 47.55 150.627 47.13 150.467 46.63C150.327 46.13 150.257 45.44 150.257 44.56V30.91L152.657 31.24V44.44C152.657 44.98 152.687 45.38 152.747 45.64C152.807 45.88 152.897 46.08 153.017 46.24C153.237 46.52 153.557 46.69 153.977 46.75C154.417 46.79 154.847 46.81 155.267 46.81L155.027 49H154.697Z" fill="#00930F"/>
<g filter="url(#filter0_d_65_1368)">
<rect x="257" y="825" width="150" height="65" rx="20" fill="#00930F"/>
<path d="M294.167 858.167C294.167 858.719 293.719 859.167 293.167 859.167H287.167V865.167C287.167 865.719 286.719 866.167 286.167 866.167H285.833C285.281 866.167 284.833 865.719 284.833 865.167V859.167H278.833C278.281 859.167 277.833 858.719 277.833 858.167V857.833C277.833 857.281 278.281 856.833 278.833 856.833H284.833V850.833C284.833 850.281 285.281 849.833 285.833 849.833H286.167C286.719 849.833 287.167 850.281 287.167 850.833V856.833H293.167C293.719 856.833 294.167 857.281 294.167 857.833V858.167Z" fill="white"/>
<path d="M326.38 865C325.567 865 324.933 864.913 324.48 864.74C324.04 864.567 323.707 864.327 323.48 864.02C323.28 863.74 323.127 863.413 323.02 863.04C322.927 862.653 322.88 862.127 322.88 861.46V852.94L325.56 853.16V861.26C325.56 861.553 325.58 861.8 325.62 862C325.66 862.187 325.727 862.327 325.82 862.42C325.967 862.553 326.127 862.64 326.3 862.68C326.473 862.707 326.747 862.72 327.12 862.72L326.92 865H326.38ZM318.38 861.5C318.073 861.5 317.747 861.407 317.4 861.22C317.067 861.033 316.747 860.787 316.44 860.48C316.147 860.173 315.9 859.82 315.7 859.42C315.513 859.02 315.42 858.613 315.42 858.2C315.42 857.813 315.52 857.473 315.72 857.18C315.933 856.887 316.347 856.74 316.96 856.74H323.78V859.02H319.74V859.92C319.74 860.48 319.62 860.887 319.38 861.14C319.14 861.38 318.807 861.5 318.38 861.5ZM332.208 861.86C331.381 861.86 330.641 861.713 329.988 861.42C329.334 861.113 328.814 860.673 328.428 860.1C328.054 859.513 327.868 858.8 327.868 857.96C327.868 857.147 328.061 856.453 328.448 855.88C328.834 855.307 329.361 854.867 330.028 854.56C330.708 854.253 331.488 854.1 332.368 854.1C332.821 854.1 333.208 854.12 333.528 854.16C333.861 854.187 334.154 854.22 334.408 854.26L334.188 856.5C333.988 856.46 333.774 856.433 333.548 856.42C333.334 856.393 333.061 856.38 332.728 856.38C332.021 856.38 331.481 856.533 331.108 856.84C330.748 857.133 330.568 857.533 330.568 858.04C330.568 858.6 330.741 859 331.088 859.24C331.434 859.467 331.854 859.58 332.348 859.58C332.948 859.58 333.481 859.473 333.948 859.26C334.428 859.047 334.908 858.713 335.388 858.26L335.348 860.96C334.908 861.253 334.428 861.48 333.908 861.64C333.401 861.787 332.834 861.86 332.208 861.86ZM338.768 865C337.954 865 337.321 864.913 336.868 864.74C336.428 864.567 336.094 864.327 335.868 864.02C335.654 863.74 335.494 863.413 335.388 863.04C335.294 862.653 335.248 862.127 335.248 861.46V852.94L337.948 853.16V861.26C337.948 861.553 337.961 861.8 337.988 862C338.028 862.187 338.094 862.327 338.188 862.42C338.334 862.553 338.494 862.64 338.668 862.68C338.841 862.707 339.114 862.72 339.488 862.72L339.288 865H338.768ZM344.591 865C343.777 865 343.151 864.913 342.711 864.74C342.271 864.553 341.937 864.313 341.711 864.02C341.471 863.7 341.304 863.34 341.211 862.94C341.131 862.54 341.091 862.047 341.091 861.46V853.06C340.997 852.473 340.877 851.953 340.731 851.5C340.584 851.033 340.411 850.64 340.211 850.32C340.024 849.987 339.811 849.74 339.571 849.58C339.331 849.407 339.077 849.32 338.811 849.32C338.437 849.32 338.151 849.447 337.951 849.7C337.737 849.94 337.631 850.313 337.631 850.82C337.631 850.98 337.637 851.147 337.651 851.32C337.664 851.48 337.684 851.64 337.711 851.8L335.051 851.76C335.024 851.573 335.004 851.38 334.991 851.18C334.964 850.98 334.951 850.773 334.951 850.56C334.951 849.453 335.264 848.6 335.891 848C336.517 847.387 337.431 847.08 338.631 847.08C339.404 847.08 340.084 847.247 340.671 847.58C341.271 847.9 341.777 848.333 342.191 848.88C342.617 849.427 342.957 850.047 343.211 850.74C343.477 851.42 343.664 852.127 343.771 852.86V861.26C343.771 861.553 343.791 861.8 343.831 862C343.871 862.187 343.937 862.327 344.031 862.42C344.164 862.553 344.317 862.64 344.491 862.68C344.677 862.707 344.957 862.72 345.331 862.72L345.131 865H344.591ZM355.536 861.86C354.923 861.86 354.383 861.78 353.916 861.62C353.463 861.447 353.096 861.22 352.816 860.94C352.39 860.513 352.116 860.053 351.996 859.56C351.89 859.067 351.836 858.46 351.836 857.74V856.9C351.836 856.593 351.816 856.353 351.776 856.18C351.736 855.993 351.67 855.853 351.576 855.76C351.443 855.613 351.29 855.527 351.116 855.5C350.956 855.46 350.676 855.44 350.276 855.44L350.476 853.16H351.016C351.843 853.16 352.47 853.247 352.896 853.42C353.336 853.593 353.67 853.833 353.896 854.14C354.136 854.46 354.296 854.82 354.376 855.22C354.47 855.62 354.516 856.113 354.516 856.7V857.56C354.516 858.133 354.556 858.54 354.636 858.78C354.716 859.007 354.83 859.187 354.976 859.32C355.083 859.413 355.223 859.48 355.396 859.52C355.57 859.56 355.743 859.58 355.916 859.58C356.463 859.58 356.943 859.44 357.356 859.16C357.783 858.88 358.116 858.6 358.356 858.32L358.396 861.06C357.983 861.313 357.543 861.513 357.076 861.66C356.61 861.793 356.096 861.86 355.536 861.86ZM361.496 865C360.683 865 360.05 864.913 359.596 864.74C359.156 864.567 358.823 864.327 358.596 864.02C358.396 863.74 358.243 863.413 358.136 863.04C358.043 862.653 357.996 862.127 357.996 861.46V852.94L360.676 853.16V861.26C360.676 861.553 360.696 861.8 360.736 862C360.776 862.187 360.843 862.327 360.936 862.42C361.083 862.553 361.243 862.64 361.416 862.68C361.59 862.707 361.863 862.72 362.236 862.72L362.036 865H361.496ZM367.345 865C366.531 865 365.898 864.913 365.445 864.74C365.005 864.567 364.671 864.327 364.445 864.02C364.245 863.74 364.091 863.413 363.985 863.04C363.891 862.653 363.845 862.127 363.845 861.46V852.94L366.525 853.16V861.26C366.525 861.553 366.545 861.8 366.585 862C366.625 862.187 366.691 862.327 366.785 862.42C366.931 862.553 367.091 862.64 367.265 862.68C367.438 862.707 367.711 862.72 368.085 862.72L367.885 865H367.345ZM363.905 852.18C363.771 851.487 363.605 850.933 363.405 850.52C363.205 850.093 362.958 849.787 362.665 849.6C362.371 849.4 361.998 849.3 361.545 849.3C361.371 849.3 361.185 849.313 360.985 849.34C360.785 849.353 360.591 849.393 360.405 849.46L359.725 847.36C359.991 847.267 360.298 847.2 360.645 847.16C360.991 847.107 361.358 847.08 361.745 847.08C362.198 847.08 362.638 847.14 363.065 847.26C363.505 847.367 363.918 847.593 364.305 847.94C364.705 848.273 365.071 848.78 365.405 849.46C365.751 850.14 366.065 851.047 366.345 852.18H363.905ZM377.105 865C376.425 865 375.791 864.933 375.205 864.8C374.618 864.667 374.058 864.447 373.525 864.14C373.005 863.833 372.491 863.42 371.985 862.9C371.478 862.367 370.958 861.707 370.425 860.92L370.925 859.34C371.405 859.287 371.858 859.16 372.285 858.96C372.711 858.76 373.058 858.493 373.325 858.16C373.591 857.813 373.725 857.4 373.725 856.92C373.725 856.293 373.531 855.853 373.145 855.6C372.758 855.347 372.291 855.22 371.745 855.22C371.331 855.22 370.925 855.267 370.525 855.36C370.125 855.453 369.765 855.58 369.445 855.74L368.705 853.62C369.198 853.42 369.718 853.26 370.265 853.14C370.811 853.007 371.438 852.94 372.145 852.94C372.971 852.94 373.705 853.093 374.345 853.4C374.998 853.693 375.511 854.133 375.885 854.72C376.271 855.307 376.465 856.033 376.465 856.9C376.465 857.58 376.325 858.207 376.045 858.78C375.778 859.34 375.398 859.833 374.905 860.26C374.411 860.687 373.818 861.02 373.125 861.26C372.445 861.487 371.685 861.6 370.845 861.6C370.151 861.6 369.625 861.453 369.265 861.16C368.905 860.867 368.725 860.473 368.725 859.98C368.725 859.5 368.885 859.14 369.205 858.9C369.525 858.647 369.931 858.52 370.425 858.52C370.798 858.52 371.151 858.6 371.485 858.76C371.818 858.92 372.198 859.213 372.625 859.64L372.705 860.1C373.318 860.887 373.878 861.46 374.385 861.82C374.905 862.18 375.391 862.413 375.845 862.52C376.311 862.613 376.765 862.66 377.205 862.66H377.645L377.465 865H377.105ZM377.305 859.34C376.878 859.34 376.451 859.287 376.025 859.18C375.611 859.06 375.251 858.893 374.945 858.68L375.105 856.14C375.385 856.433 375.698 856.667 376.045 856.84C376.391 857.013 376.831 857.1 377.365 857.1C377.658 857.1 377.925 857.073 378.165 857.02C378.418 856.967 378.678 856.88 378.945 856.76L379.345 858.92C379.011 859.067 378.698 859.173 378.405 859.24C378.111 859.307 377.745 859.34 377.305 859.34ZM382.876 865.2C381.89 865.2 381.056 865.053 380.376 864.76C379.71 864.453 379.203 864.027 378.856 863.48C378.51 862.933 378.336 862.307 378.336 861.6C378.336 860.68 378.636 859.913 379.236 859.3C379.85 858.687 380.73 858.093 381.876 857.52C382.436 857.24 382.863 857.013 383.156 856.84C383.45 856.667 383.65 856.513 383.756 856.38C383.876 856.247 383.936 856.093 383.936 855.92C383.936 855.653 383.816 855.467 383.576 855.36C383.35 855.24 383.063 855.18 382.716 855.18C382.183 855.18 381.676 855.233 381.196 855.34C380.73 855.433 380.303 855.56 379.916 855.72L379.156 853.6C379.703 853.413 380.276 853.26 380.876 853.14C381.49 853.007 382.136 852.94 382.816 852.94C383.67 852.94 384.376 853.067 384.936 853.32C385.496 853.56 385.916 853.9 386.196 854.34C386.476 854.767 386.616 855.267 386.616 855.84C386.616 856.373 386.516 856.847 386.316 857.26C386.116 857.66 385.77 858.047 385.276 858.42C384.796 858.78 384.123 859.187 383.256 859.64C382.71 859.92 382.276 860.167 381.956 860.38C381.636 860.593 381.41 860.8 381.276 861C381.143 861.187 381.076 861.407 381.076 861.66C381.076 862.153 381.25 862.487 381.596 862.66C381.956 862.833 382.383 862.92 382.876 862.92C383.623 862.92 384.31 862.827 384.936 862.64C385.563 862.44 386.096 862.213 386.536 861.96L387.596 864.08C386.876 864.4 386.15 864.667 385.416 864.88C384.696 865.093 383.85 865.2 382.876 865.2Z" fill="white"/>
</g>
<path d="M42.4998 130.167C43.6049 130.167 44.6647 130.606 45.4461 131.387C46.2275 132.169 46.6665 133.228 46.6665 134.333C46.6665 135.438 46.2275 136.498 45.4461 137.28C44.6647 138.061 43.6049 138.5 42.4998 138.5C41.3948 138.5 40.335 138.061 39.5536 137.28C38.7722 136.498 38.3332 135.438 38.3332 134.333C38.3332 133.228 38.7722 132.169 39.5536 131.387C40.335 130.606 41.3948 130.167 42.4998 130.167M42.4998 140.583C47.104 140.583 50.8332 142.448 50.8332 144.75V146.833H34.1665V144.75C34.1665 142.448 37.8957 140.583 42.4998 140.583Z" fill="#00930F"/>
<path d="M82.4 146C81.9333 146 81.4933 145.953 81.08 145.86C80.68 145.753 80.34 145.553 80.06 145.26C79.8067 144.993 79.64 144.7 79.56 144.38C79.48 144.047 79.44 143.6 79.44 143.04V133.94L81.04 134.16V142.96C81.04 143.32 81.06 143.587 81.1 143.76C81.14 143.92 81.2 144.053 81.28 144.16C81.4267 144.347 81.64 144.46 81.92 144.5C82.2 144.527 82.48 144.54 82.76 144.54L82.6 146H82.4ZM74.8 141.72C74.56 141.72 74.3 141.64 74.02 141.48C73.7533 141.307 73.5 141.087 73.26 140.82C73.0333 140.553 72.8467 140.267 72.7 139.96C72.5533 139.64 72.48 139.333 72.48 139.04C72.48 138.733 72.5667 138.487 72.74 138.3C72.9267 138.1 73.24 138 73.68 138H80.16V139.44H75.82V140.58C75.82 140.967 75.7267 141.253 75.54 141.44C75.3533 141.627 75.1067 141.72 74.8 141.72ZM87.698 146C87.1246 146 86.6513 145.94 86.278 145.82C85.9046 145.687 85.598 145.5 85.358 145.26C85.1313 145.033 84.9646 144.753 84.858 144.42C84.7646 144.087 84.718 143.627 84.718 143.04V133.94L86.318 134.14V142.96C86.318 143.333 86.338 143.6 86.378 143.76C86.418 143.92 86.498 144.067 86.618 144.2C86.7646 144.373 86.9646 144.473 87.218 144.5C87.4846 144.527 87.7646 144.54 88.058 144.54L87.898 146H87.698ZM99.5709 146C98.9976 146 98.5176 145.94 98.1309 145.82C97.7576 145.687 97.4576 145.5 97.2309 145.26C97.0176 145.033 96.8576 144.753 96.7509 144.42C96.6576 144.087 96.6109 143.627 96.6109 143.04V133.94L98.2109 134.16V142.96C98.2109 143.32 98.2309 143.587 98.2709 143.76C98.3109 143.92 98.3709 144.053 98.4509 144.16C98.5976 144.347 98.8109 144.46 99.0909 144.5C99.3843 144.527 99.6643 144.54 99.9309 144.54L99.7909 146H99.5709ZM91.5309 142.96C91.2643 142.96 90.9976 142.887 90.7309 142.74C90.4643 142.58 90.2176 142.38 89.9909 142.14C89.7643 141.887 89.5776 141.62 89.4309 141.34C89.2976 141.047 89.2309 140.773 89.2309 140.52C89.2309 140.293 89.3176 140.1 89.4909 139.94C89.6643 139.767 89.9509 139.68 90.3509 139.68H96.8509V141.12H92.4309V141.7C92.4309 142.153 92.3376 142.48 92.1509 142.68C91.9643 142.867 91.7576 142.96 91.5309 142.96ZM90.8309 140V137.2C90.8309 136.827 90.8109 136.56 90.7709 136.4C90.7309 136.24 90.6709 136.107 90.5909 136C90.4576 135.813 90.2443 135.7 89.9509 135.66C89.6576 135.62 89.3709 135.6 89.0909 135.6L89.2509 134.16H89.4709C90.0443 134.16 90.5176 134.22 90.8909 134.34C91.2776 134.46 91.5843 134.64 91.8109 134.88C91.9576 135.027 92.0776 135.2 92.1709 135.4C92.2643 135.6 92.3309 135.84 92.3709 136.12C92.4109 136.387 92.4309 136.72 92.4309 137.12V140H90.8309Z" fill="#303030"/>
<path d="M36.8958 177.24C38.3958 180.187 40.8125 182.604 43.7604 184.104L46.0521 181.812C46.3437 181.521 46.75 181.437 47.1146 181.552C48.2812 181.937 49.5312 182.146 50.8333 182.146C51.1096 182.146 51.3746 182.256 51.5699 182.451C51.7653 182.646 51.875 182.911 51.875 183.187V186.833C51.875 187.11 51.7653 187.375 51.5699 187.57C51.3746 187.765 51.1096 187.875 50.8333 187.875C46.1368 187.875 41.6326 186.009 38.3117 182.688C34.9907 179.367 33.125 174.863 33.125 170.167C33.125 169.89 33.2347 169.625 33.4301 169.43C33.6254 169.235 33.8904 169.125 34.1667 169.125H37.8125C38.0888 169.125 38.3537 169.235 38.5491 169.43C38.7444 169.625 38.8542 169.89 38.8542 170.167C38.8542 171.469 39.0625 172.719 39.4479 173.885C39.5625 174.25 39.4792 174.656 39.1875 174.948L36.8958 177.24Z" fill="#00930F"/>
<path d="M79.58 189.56C78.7 189.56 77.9467 189.36 77.32 188.96C76.6933 188.56 76.1467 188.033 75.68 187.38C75.2133 186.727 74.7667 186.013 74.34 185.24L73.92 183.82C74.3067 184.033 74.6533 184.213 74.96 184.36C75.2667 184.493 75.5867 184.6 75.92 184.68C76.2533 184.747 76.66 184.78 77.14 184.78C77.9 184.78 78.4667 184.633 78.84 184.34C79.2267 184.047 79.42 183.64 79.42 183.12C79.42 182.867 79.3533 182.6 79.22 182.32C79.1 182.04 78.86 181.733 78.5 181.4C78.14 181.067 77.6133 180.7 76.92 180.3L76.38 179.88C75.9133 179.573 75.5 179.273 75.14 178.98C74.7933 178.673 74.5267 178.34 74.34 177.98C74.1533 177.62 74.06 177.213 74.06 176.76C74.06 175.933 74.3733 175.26 75 174.74C75.64 174.207 76.4867 173.94 77.54 173.94C77.9667 173.94 78.3733 173.967 78.76 174.02C79.1467 174.06 79.52 174.127 79.88 174.22L79.58 175.66C79.2333 175.58 78.92 175.52 78.64 175.48C78.3733 175.44 78.0667 175.42 77.72 175.42C77.04 175.42 76.5333 175.553 76.2 175.82C75.8667 176.087 75.7 176.447 75.7 176.9C75.7 177.14 75.7667 177.38 75.9 177.62C76.0333 177.86 76.2467 178.1 76.54 178.34C76.8333 178.567 77.22 178.807 77.7 179.06L78.26 179.56C78.8733 179.907 79.3867 180.26 79.8 180.62C80.2133 180.98 80.5267 181.367 80.74 181.78C80.9533 182.193 81.06 182.653 81.06 183.16C81.06 183.653 80.9333 184.133 80.68 184.6C80.44 185.067 80.0333 185.453 79.46 185.76C78.9 186.053 78.14 186.2 77.18 186.2C76.8467 186.2 76.4867 186.187 76.1 186.16C75.7133 186.133 75.3667 186.107 75.06 186.08C74.4333 186.027 73.96 185.913 73.64 185.74C73.3333 185.553 73.1267 185.353 73.02 185.14C72.9133 184.913 72.86 184.713 72.86 184.54C72.86 184.233 72.96 183.993 73.16 183.82C73.3733 183.647 73.6267 183.56 73.92 183.56C74.1867 183.56 74.4333 183.613 74.66 183.72C74.9 183.827 75.1267 183.98 75.34 184.18C75.5667 184.367 75.7867 184.6 76 184.88L75.76 185.04C76.2133 185.773 76.6333 186.36 77.02 186.8C77.4067 187.253 77.8 187.573 78.2 187.76C78.6 187.96 79.0533 188.06 79.56 188.06H80.08L79.9 189.56H79.58ZM73.3 181.78L72.76 180.36L76.58 179L81.28 177.24L81.92 178.64L77.78 180.06L73.3 181.78ZM86.9948 186C86.4215 186 85.9482 185.94 85.5748 185.82C85.2015 185.687 84.8948 185.5 84.6548 185.26C84.4282 185.033 84.2615 184.753 84.1548 184.42C84.0615 184.087 84.0148 183.627 84.0148 183.04V173.94L85.6148 174.14V182.96C85.6148 183.333 85.6348 183.6 85.6748 183.76C85.7148 183.92 85.7948 184.067 85.9148 184.2C86.0615 184.373 86.2615 184.473 86.5148 184.5C86.7815 184.527 87.0615 184.54 87.3548 184.54L87.1948 186H86.9948ZM84.0548 173.18C83.8148 172.3 83.5615 171.593 83.2948 171.06C83.0415 170.513 82.7482 170.12 82.4148 169.88C82.0948 169.64 81.7015 169.52 81.2348 169.52C81.0882 169.52 80.9215 169.533 80.7348 169.56C80.5482 169.587 80.3682 169.633 80.1948 169.7L79.7148 168.32C79.9948 168.227 80.2748 168.167 80.5548 168.14C80.8348 168.1 81.0948 168.08 81.3348 168.08C81.8015 168.08 82.2348 168.153 82.6348 168.3C83.0348 168.433 83.4015 168.687 83.7348 169.06C84.0682 169.42 84.3815 169.933 84.6748 170.6C84.9682 171.267 85.2348 172.127 85.4748 173.18H84.0548ZM97.9078 186C97.4411 186 97.0011 185.953 96.5878 185.86C96.1878 185.753 95.8478 185.553 95.5678 185.26C95.3145 184.993 95.1478 184.7 95.0678 184.38C94.9878 184.047 94.9478 183.6 94.9478 183.04V173.94L96.5478 174.16V182.96C96.5478 183.32 96.5678 183.587 96.6078 183.76C96.6478 183.92 96.7078 184.053 96.7878 184.16C96.9345 184.347 97.1478 184.46 97.4278 184.5C97.7078 184.527 97.9878 184.54 98.2678 184.54L98.1078 186H97.9078ZM90.3078 181.72C90.0678 181.72 89.8078 181.64 89.5278 181.48C89.2611 181.307 89.0078 181.087 88.7678 180.82C88.5411 180.553 88.3545 180.267 88.2078 179.96C88.0611 179.64 87.9878 179.333 87.9878 179.04C87.9878 178.733 88.0745 178.487 88.2478 178.3C88.4345 178.1 88.7478 178 89.1878 178H95.6678V179.44H91.3278V180.58C91.3278 180.967 91.2345 181.253 91.0478 181.44C90.8611 181.627 90.6145 181.72 90.3078 181.72ZM114.451 186C113.984 186 113.544 185.953 113.131 185.86C112.731 185.753 112.391 185.553 112.111 185.26C111.857 184.993 111.691 184.7 111.611 184.38C111.531 184.047 111.491 183.6 111.491 183.04V173.94L113.091 174.16V182.96C113.091 183.32 113.111 183.587 113.151 183.76C113.191 183.92 113.251 184.053 113.331 184.16C113.477 184.347 113.691 184.46 113.971 184.5C114.251 184.527 114.531 184.54 114.811 184.54L114.651 186H114.451ZM106.851 181.72C106.611 181.72 106.351 181.64 106.071 181.48C105.804 181.307 105.551 181.087 105.311 180.82C105.084 180.553 104.897 180.267 104.751 179.96C104.604 179.64 104.531 179.333 104.531 179.04C104.531 178.733 104.617 178.487 104.791 178.3C104.977 178.1 105.291 178 105.731 178H112.211V179.44H107.871V180.58C107.871 180.967 107.777 181.253 107.591 181.44C107.404 181.627 107.157 181.72 106.851 181.72ZM112.309 171.94C111.989 171.94 111.722 171.833 111.509 171.62C111.295 171.407 111.189 171.12 111.189 170.76C111.189 170.4 111.295 170.113 111.509 169.9C111.722 169.687 111.989 169.58 112.309 169.58C112.615 169.58 112.882 169.687 113.109 169.9C113.322 170.113 113.429 170.4 113.429 170.76C113.429 171.12 113.322 171.407 113.109 171.62C112.882 171.833 112.615 171.94 112.309 171.94ZM119.629 182.98C118.895 182.98 118.242 182.82 117.669 182.5C117.109 182.167 116.662 181.693 116.329 181.08C116.009 180.467 115.849 179.747 115.849 178.92C115.849 177.68 116.222 176.647 116.969 175.82C117.715 174.98 118.775 174.353 120.149 173.94L120.609 175.38C119.435 175.753 118.622 176.247 118.169 176.86C117.715 177.473 117.489 178.167 117.489 178.94C117.489 179.58 117.595 180.093 117.809 180.48C118.022 180.853 118.295 181.127 118.629 181.3C118.962 181.46 119.302 181.54 119.649 181.54C120.022 181.54 120.335 181.48 120.589 181.36C120.855 181.24 121.075 181.067 121.249 180.84C121.422 180.613 121.542 180.34 121.609 180.02C121.675 179.7 121.709 179.233 121.709 178.62V177.06L123.309 177.26V179.3C123.309 180.353 123.009 181.233 122.409 181.94C121.822 182.633 120.895 182.98 119.629 182.98ZM124.469 181.44C123.935 181.44 123.449 181.293 123.009 181C122.582 180.707 122.229 180.153 121.949 179.34L123.049 178.86C123.182 179.287 123.369 179.587 123.609 179.76C123.849 179.92 124.135 180 124.469 180C124.949 180 125.362 179.88 125.709 179.64C126.055 179.387 126.375 179.033 126.669 178.58L127.009 180.18C126.662 180.58 126.302 180.893 125.929 181.12C125.555 181.333 125.069 181.44 124.469 181.44ZM129.129 186C128.662 186 128.222 185.953 127.809 185.86C127.409 185.753 127.069 185.553 126.789 185.26C126.535 184.993 126.369 184.7 126.289 184.38C126.209 184.047 126.169 183.6 126.169 183.04V173.94L127.769 174.16V182.96C127.769 183.32 127.789 183.587 127.829 183.76C127.869 183.92 127.929 184.053 128.009 184.16C128.155 184.347 128.369 184.46 128.649 184.5C128.929 184.527 129.209 184.54 129.489 184.54L129.329 186H129.129ZM137.896 186C137.163 186 136.496 185.867 135.896 185.6C135.31 185.32 134.776 184.96 134.296 184.52C133.83 184.08 133.403 183.6 133.016 183.08C132.643 182.547 132.296 182.02 131.976 181.5L132.136 180.7C132.736 180.66 133.323 180.527 133.896 180.3C134.483 180.073 134.963 179.74 135.336 179.3C135.723 178.86 135.916 178.313 135.916 177.66C135.916 176.913 135.69 176.353 135.236 175.98C134.783 175.593 134.183 175.4 133.436 175.4C132.956 175.4 132.503 175.447 132.076 175.54C131.663 175.633 131.223 175.793 130.756 176.02L130.236 174.64C130.73 174.427 131.25 174.26 131.796 174.14C132.356 174.007 132.916 173.94 133.476 173.94C134.29 173.94 135.003 174.08 135.616 174.36C136.23 174.64 136.71 175.053 137.056 175.6C137.403 176.147 137.576 176.827 137.576 177.64C137.576 178.36 137.416 179.007 137.096 179.58C136.79 180.14 136.37 180.62 135.836 181.02C135.303 181.42 134.71 181.727 134.056 181.94C133.403 182.14 132.743 182.24 132.076 182.24C131.463 182.24 131.003 182.147 130.696 181.96C130.39 181.773 130.236 181.46 130.236 181.02C130.236 180.687 130.35 180.433 130.576 180.26C130.803 180.073 131.096 179.98 131.456 179.98C131.803 179.98 132.143 180.053 132.476 180.2C132.81 180.347 133.196 180.64 133.636 181.08H133.376C134.003 181.987 134.556 182.693 135.036 183.2C135.53 183.693 136.016 184.033 136.496 184.22C136.976 184.407 137.51 184.5 138.096 184.5H138.376L138.196 186H137.896Z" fill="#303030"/>
<path d="M40.4583 100.062C41.0106 100.062 41.4583 100.51 41.4583 101.062V107.396C41.4583 107.948 41.0106 108.396 40.4583 108.396H34.125C33.5727 108.396 33.125 107.948 33.125 107.396V101.062C33.125 100.51 33.5727 100.062 34.125 100.062H40.4583ZM41.6467 89.4795C42.0366 88.8415 42.9634 88.8415 43.3533 89.4795L47.2994 95.9368C47.7066 96.6032 47.227 97.4583 46.4461 97.4583H38.5539C37.773 97.4583 37.2934 96.6032 37.7006 95.9368L41.6467 89.4795ZM48.2292 99.5416C50.8333 99.5416 52.9167 101.625 52.9167 104.229C52.9167 106.833 50.8333 108.917 48.2292 108.917C45.625 108.917 43.5417 106.833 43.5417 104.229C43.5417 101.625 45.625 99.5416 48.2292 99.5416Z" fill="#00930F"/>
<path d="M77.28 102.78C76.76 102.78 76.2933 102.7 75.88 102.54C75.4667 102.38 75.1267 102.173 74.86 101.92C74.5267 101.587 74.2733 101.2 74.1 100.76C73.94 100.32 73.86 99.7333 73.86 99V97.2C73.86 96.84 73.84 96.58 73.8 96.42C73.76 96.2467 73.7 96.1067 73.62 96C73.4867 95.8133 73.2733 95.7067 72.98 95.68C72.6867 95.64 72.4 95.62 72.12 95.62L72.28 94.16H72.48C73.0667 94.16 73.5467 94.2267 73.92 94.36C74.3067 94.48 74.6133 94.66 74.84 94.9C75.0667 95.1267 75.2267 95.4067 75.32 95.74C75.4133 96.0733 75.46 96.54 75.46 97.14V98.86C75.46 99.4733 75.5133 99.9333 75.62 100.24C75.7267 100.533 75.8667 100.767 76.04 100.94C76.1867 101.073 76.3733 101.173 76.6 101.24C76.84 101.307 77.12 101.34 77.44 101.34C77.9733 101.34 78.4733 101.213 78.94 100.96C79.4067 100.693 79.7933 100.387 80.1 100.04V101.84C79.7267 102.12 79.3067 102.347 78.84 102.52C78.3867 102.693 77.8667 102.78 77.28 102.78ZM82.84 106C82.2667 106 81.7867 105.94 81.4 105.82C81.0133 105.687 80.7067 105.5 80.48 105.26C80.2667 105.033 80.1067 104.753 80 104.42C79.9067 104.087 79.86 103.627 79.86 103.04V93.94L81.46 94.16V102.96C81.46 103.32 81.48 103.587 81.52 103.76C81.56 103.92 81.62 104.053 81.7 104.16C81.8467 104.347 82.06 104.46 82.34 104.5C82.6333 104.527 82.92 104.54 83.2 104.54L83.04 106H82.84ZM88.1472 106C87.5739 106 87.1005 105.94 86.7272 105.82C86.3539 105.687 86.0472 105.5 85.8072 105.26C85.5805 105.033 85.4139 104.753 85.3072 104.42C85.2139 104.087 85.1672 103.627 85.1672 103.04V93.94L86.7672 94.14V102.96C86.7672 103.333 86.7872 103.6 86.8272 103.76C86.8672 103.92 86.9472 104.067 87.0672 104.2C87.2139 104.373 87.4139 104.473 87.6672 104.5C87.9339 104.527 88.2139 104.54 88.5072 104.54L88.3472 106H88.1472ZM85.2072 93.18C84.9672 92.3 84.7139 91.5933 84.4472 91.06C84.1939 90.5133 83.9005 90.12 83.5672 89.88C83.2472 89.64 82.8539 89.52 82.3872 89.52C82.2405 89.52 82.0739 89.5333 81.8872 89.56C81.7005 89.5867 81.5205 89.6333 81.3472 89.7L80.8672 88.32C81.1472 88.2267 81.4272 88.1667 81.7072 88.14C81.9872 88.1 82.2472 88.08 82.4872 88.08C82.9539 88.08 83.3872 88.1533 83.7872 88.3C84.1872 88.4333 84.5539 88.6867 84.8872 89.06C85.2205 89.42 85.5339 89.9333 85.8272 90.6C86.1205 91.2667 86.3872 92.1267 86.6272 93.18H85.2072ZM96.9202 106C96.1735 106 95.5002 105.867 94.9002 105.6C94.3135 105.32 93.7802 104.96 93.3002 104.52C92.8335 104.08 92.4068 103.6 92.0202 103.08C91.6468 102.547 91.3002 102.02 90.9802 101.5L91.2002 100.7C91.7735 100.633 92.3202 100.487 92.8402 100.26C93.3735 100.02 93.8068 99.6867 94.1402 99.26C94.4868 98.8333 94.6602 98.3067 94.6602 97.68C94.6602 96.92 94.4468 96.3533 94.0202 95.98C93.6068 95.5933 93.0402 95.4 92.3202 95.4C91.8668 95.4 91.4402 95.4467 91.0402 95.54C90.6535 95.6333 90.2268 95.7933 89.7602 96.02L89.2402 94.64C89.7335 94.4267 90.2468 94.26 90.7802 94.14C91.3135 94.0067 91.8468 93.94 92.3802 93.94C93.1668 93.94 93.8468 94.08 94.4202 94.36C95.0068 94.64 95.4602 95.0533 95.7802 95.6C96.1135 96.1467 96.2802 96.8267 96.2802 97.64C96.2802 98.36 96.1268 99.0067 95.8202 99.58C95.5268 100.14 95.1268 100.62 94.6202 101.02C94.1268 101.42 93.5668 101.727 92.9402 101.94C92.3268 102.14 91.7068 102.24 91.0802 102.24C90.4668 102.24 90.0068 102.147 89.7002 101.96C89.3935 101.76 89.2402 101.447 89.2402 101.02C89.2402 100.687 89.3535 100.433 89.5802 100.26C89.8068 100.073 90.1002 99.98 90.4602 99.98C90.8068 99.98 91.1402 100.053 91.4602 100.2C91.7935 100.347 92.1868 100.64 92.6402 101.08H92.3802C93.0068 101.987 93.5602 102.693 94.0402 103.2C94.5335 103.693 95.0202 104.033 95.5002 104.22C95.9802 104.407 96.5135 104.5 97.1002 104.5H97.3802L97.2002 106H96.9202ZM97.4602 99.98C97.0202 99.98 96.5868 99.9267 96.1602 99.82C95.7468 99.7133 95.3868 99.5533 95.0802 99.34L95.2602 97.9C95.5402 98.0733 95.8602 98.2267 96.2202 98.36C96.5935 98.48 96.9868 98.54 97.4002 98.54C97.8135 98.54 98.1802 98.5 98.5002 98.42C98.8202 98.34 99.1335 98.22 99.4402 98.06L99.7602 99.46C99.4002 99.6733 99.0268 99.8133 98.6402 99.88C98.2535 99.9467 97.8602 99.98 97.4602 99.98ZM102.566 106.2C101.713 106.2 100.979 106.06 100.366 105.78C99.7659 105.487 99.3059 105.087 98.9859 104.58C98.6659 104.06 98.5059 103.453 98.5059 102.76C98.5059 101.853 98.7926 101.107 99.3659 100.52C99.9393 99.92 100.733 99.3533 101.746 98.82C102.293 98.5267 102.733 98.2733 103.066 98.06C103.413 97.8467 103.659 97.6333 103.806 97.42C103.966 97.2067 104.046 96.9533 104.046 96.66C104.046 96.2067 103.886 95.8867 103.566 95.7C103.246 95.5 102.833 95.4 102.326 95.4C101.859 95.4 101.426 95.44 101.026 95.52C100.639 95.6 100.246 95.7333 99.8459 95.92L99.3459 94.56C99.7859 94.3733 100.253 94.2267 100.746 94.12C101.253 94 101.793 93.94 102.366 93.94C103.113 93.94 103.726 94.0533 104.206 94.28C104.686 94.5067 105.046 94.8267 105.286 95.24C105.526 95.64 105.646 96.1 105.646 96.62C105.646 97.18 105.533 97.6533 105.306 98.04C105.079 98.4133 104.773 98.7467 104.386 99.04C104.013 99.32 103.579 99.5933 103.086 99.86C102.353 100.26 101.773 100.613 101.346 100.92C100.919 101.213 100.613 101.513 100.426 101.82C100.253 102.127 100.166 102.493 100.166 102.92C100.166 103.453 100.379 103.893 100.806 104.24C101.233 104.573 101.833 104.74 102.606 104.74C103.246 104.74 103.826 104.653 104.346 104.48C104.866 104.293 105.393 104.033 105.926 103.7L106.666 105.12C106.039 105.467 105.413 105.733 104.786 105.92C104.173 106.107 103.433 106.2 102.566 106.2ZM122.634 106C122.168 106 121.728 105.953 121.314 105.86C120.914 105.753 120.574 105.553 120.294 105.26C120.041 104.993 119.874 104.7 119.794 104.38C119.714 104.047 119.674 103.6 119.674 103.04V93.94L121.274 94.16V102.96C121.274 103.32 121.294 103.587 121.334 103.76C121.374 103.92 121.434 104.053 121.514 104.16C121.661 104.347 121.874 104.46 122.154 104.5C122.434 104.527 122.714 104.54 122.994 104.54L122.834 106H122.634ZM115.034 101.72C114.794 101.72 114.534 101.64 114.254 101.48C113.988 101.307 113.734 101.087 113.494 100.82C113.268 100.553 113.081 100.267 112.934 99.96C112.788 99.64 112.714 99.3333 112.714 99.04C112.714 98.7333 112.801 98.4867 112.974 98.3C113.161 98.1 113.474 98 113.914 98H120.394V99.44H116.054V100.58C116.054 100.967 115.961 101.253 115.774 101.44C115.588 101.627 115.341 101.72 115.034 101.72ZM127.932 106C127.359 106 126.886 105.94 126.512 105.82C126.139 105.687 125.832 105.5 125.592 105.26C125.366 105.033 125.199 104.753 125.092 104.42C124.999 104.087 124.952 103.627 124.952 103.04V93.94L126.552 94.14V102.96C126.552 103.333 126.572 103.6 126.612 103.76C126.652 103.92 126.732 104.067 126.852 104.2C126.999 104.373 127.199 104.473 127.452 104.5C127.719 104.527 127.999 104.54 128.292 104.54L128.132 106H127.932ZM124.992 93.18C124.752 92.3 124.499 91.5933 124.232 91.06C123.979 90.5133 123.686 90.12 123.352 89.88C123.032 89.64 122.639 89.52 122.172 89.52C122.026 89.52 121.859 89.5333 121.672 89.56C121.486 89.5867 121.306 89.6333 121.132 89.7L120.652 88.32C120.932 88.2267 121.212 88.1667 121.492 88.14C121.772 88.1 122.032 88.08 122.272 88.08C122.739 88.08 123.172 88.1533 123.572 88.3C123.972 88.4333 124.339 88.6867 124.672 89.06C125.006 89.42 125.319 89.9333 125.612 90.6C125.906 91.2667 126.172 92.1267 126.412 93.18H124.992ZM139.19 102.66C138.697 102.66 138.27 102.607 137.91 102.5C137.55 102.393 137.224 102.2 136.93 101.92C136.597 101.587 136.344 101.2 136.17 100.76C136.01 100.32 135.93 99.7333 135.93 99V97.2C135.93 96.84 135.91 96.58 135.87 96.42C135.83 96.2467 135.77 96.1067 135.69 96C135.557 95.8133 135.344 95.7067 135.05 95.68C134.757 95.64 134.47 95.62 134.19 95.62L134.35 94.16H134.55C135.137 94.16 135.617 94.2267 135.99 94.36C136.377 94.48 136.684 94.66 136.91 94.9C137.137 95.1267 137.297 95.4067 137.39 95.74C137.484 96.0733 137.53 96.54 137.53 97.14V98.86C137.53 99.4733 137.584 99.9333 137.69 100.24C137.797 100.533 137.937 100.767 138.11 100.94C138.257 101.073 138.444 101.173 138.67 101.24C138.91 101.307 139.19 101.34 139.51 101.34C140.044 101.34 140.544 101.213 141.01 100.96C141.477 100.693 141.864 100.387 142.17 100.04V101.66C141.93 101.833 141.664 102 141.37 102.16C141.077 102.307 140.75 102.427 140.39 102.52C140.03 102.613 139.63 102.66 139.19 102.66ZM136.09 106.18L135.09 104.84L140.01 101.88L140.43 101.36L142.19 101.78L136.09 106.18ZM144.91 106C144.337 106 143.857 105.94 143.47 105.82C143.084 105.687 142.777 105.5 142.55 105.26C142.337 105.033 142.177 104.753 142.07 104.42C141.977 104.087 141.93 103.627 141.93 103.04V93.94L143.53 94.16V102.96C143.53 103.32 143.55 103.587 143.59 103.76C143.63 103.92 143.69 104.053 143.77 104.16C143.917 104.347 144.13 104.46 144.41 104.5C144.704 104.527 144.99 104.54 145.27 104.54L145.11 106H144.91ZM150.618 106.2C149.578 106.2 148.664 106.04 147.878 105.72C147.091 105.387 146.398 104.993 145.798 104.54L146.698 103.3C147.351 103.807 147.984 104.173 148.598 104.4C149.224 104.627 149.864 104.74 150.518 104.74C151.331 104.74 151.924 104.6 152.298 104.32C152.671 104.04 152.858 103.64 152.858 103.12C152.858 102.853 152.791 102.587 152.658 102.32C152.538 102.04 152.298 101.733 151.938 101.4C151.578 101.067 151.051 100.7 150.358 100.3L149.818 99.88C149.351 99.5733 148.938 99.2733 148.578 98.98C148.231 98.6733 147.964 98.3467 147.778 98C147.591 97.64 147.498 97.2333 147.498 96.78C147.498 95.94 147.811 95.26 148.438 94.74C149.078 94.2067 149.924 93.94 150.978 93.94C151.404 93.94 151.811 93.9667 152.198 94.02C152.584 94.06 152.958 94.1267 153.318 94.22L153.018 95.66C152.671 95.58 152.358 95.52 152.078 95.48C151.811 95.44 151.504 95.42 151.158 95.42C150.478 95.42 149.971 95.5533 149.638 95.82C149.304 96.0867 149.138 96.4533 149.138 96.92C149.138 97.16 149.204 97.4 149.338 97.64C149.471 97.8667 149.684 98.1 149.978 98.34C150.271 98.5667 150.658 98.8067 151.138 99.06L151.698 99.56C152.311 99.9067 152.824 100.26 153.238 100.62C153.651 100.98 153.964 101.367 154.178 101.78C154.391 102.193 154.498 102.653 154.498 103.16C154.498 103.653 154.371 104.133 154.118 104.6C153.878 105.067 153.471 105.453 152.898 105.76C152.338 106.053 151.578 106.2 150.618 106.2ZM146.738 101.78L146.198 100.36L150.018 99L154.718 97.24L155.358 98.64L151.218 100.06L146.738 101.78ZM160.432 106C159.859 106 159.386 105.94 159.012 105.82C158.639 105.687 158.332 105.5 158.092 105.26C157.866 105.033 157.699 104.753 157.592 104.42C157.499 104.087 157.452 103.627 157.452 103.04V93.94L159.052 94.14V102.96C159.052 103.333 159.072 103.6 159.112 103.76C159.152 103.92 159.232 104.067 159.352 104.2C159.499 104.373 159.699 104.473 159.952 104.5C160.219 104.527 160.499 104.54 160.792 104.54L160.632 106H160.432ZM169.185 106C168.452 106 167.785 105.867 167.185 105.6C166.599 105.32 166.065 104.96 165.585 104.52C165.119 104.08 164.692 103.6 164.305 103.08C163.932 102.547 163.585 102.02 163.265 101.5L163.425 100.7C164.025 100.66 164.612 100.527 165.185 100.3C165.772 100.073 166.252 99.74 166.625 99.3C167.012 98.86 167.205 98.3133 167.205 97.66C167.205 96.9133 166.979 96.3533 166.525 95.98C166.072 95.5933 165.472 95.4 164.725 95.4C164.245 95.4 163.792 95.4467 163.365 95.54C162.952 95.6333 162.512 95.7933 162.045 96.02L161.525 94.64C162.019 94.4267 162.539 94.26 163.085 94.14C163.645 94.0067 164.205 93.94 164.765 93.94C165.579 93.94 166.292 94.08 166.905 94.36C167.519 94.64 167.999 95.0533 168.345 95.6C168.692 96.1467 168.865 96.8267 168.865 97.64C168.865 98.36 168.705 99.0067 168.385 99.58C168.079 100.14 167.659 100.62 167.125 101.02C166.592 101.42 165.999 101.727 165.345 101.94C164.692 102.14 164.032 102.24 163.365 102.24C162.752 102.24 162.292 102.147 161.985 101.96C161.679 101.773 161.525 101.46 161.525 101.02C161.525 100.687 161.639 100.433 161.865 100.26C162.092 100.073 162.385 99.98 162.745 99.98C163.092 99.98 163.432 100.053 163.765 100.2C164.099 100.347 164.485 100.64 164.925 101.08H164.665C165.292 101.987 165.845 102.693 166.325 103.2C166.819 103.693 167.305 104.033 167.785 104.22C168.265 104.407 168.799 104.5 169.385 104.5H169.665L169.485 106H169.185Z" fill="#303030"/>
<path d="M37.0645 212.995C36.8772 212.662 37.1181 212.25 37.5004 212.25H47.5093C47.8918 212.25 48.1326 212.662 47.945 212.995L42.9361 221.892C42.7448 222.232 42.2555 222.232 42.0645 221.892L37.0645 212.995ZM34.8348 210.167C34.07 210.167 33.5883 210.99 33.9633 211.657L41.6284 225.284C42.0107 225.964 42.9893 225.964 43.3716 225.284L51.0367 211.657C51.4117 210.99 50.93 210.167 50.1652 210.167H34.8348Z" fill="#00930F"/>
<path d="M77.28 222.78C76.76 222.78 76.2933 222.7 75.88 222.54C75.4667 222.38 75.1267 222.173 74.86 221.92C74.5267 221.587 74.2733 221.2 74.1 220.76C73.94 220.32 73.86 219.733 73.86 219V217.2C73.86 216.84 73.84 216.58 73.8 216.42C73.76 216.247 73.7 216.107 73.62 216C73.4867 215.813 73.2733 215.707 72.98 215.68C72.6867 215.64 72.4 215.62 72.12 215.62L72.28 214.16H72.48C73.0667 214.16 73.5467 214.227 73.92 214.36C74.3067 214.48 74.6133 214.66 74.84 214.9C75.0667 215.127 75.2267 215.407 75.32 215.74C75.4133 216.073 75.46 216.54 75.46 217.14V218.86C75.46 219.473 75.5133 219.933 75.62 220.24C75.7267 220.533 75.8667 220.767 76.04 220.94C76.1867 221.073 76.3733 221.173 76.6 221.24C76.84 221.307 77.12 221.34 77.44 221.34C77.9733 221.34 78.4733 221.213 78.94 220.96C79.4067 220.693 79.7933 220.387 80.1 220.04V221.84C79.7267 222.12 79.3067 222.347 78.84 222.52C78.3867 222.693 77.8667 222.78 77.28 222.78ZM82.84 226C82.2667 226 81.7867 225.94 81.4 225.82C81.0133 225.687 80.7067 225.5 80.48 225.26C80.2667 225.033 80.1067 224.753 80 224.42C79.9067 224.087 79.86 223.627 79.86 223.04V213.94L81.46 214.16V222.96C81.46 223.32 81.48 223.587 81.52 223.76C81.56 223.92 81.62 224.053 81.7 224.16C81.8467 224.347 82.06 224.46 82.34 224.5C82.6333 224.527 82.92 224.54 83.2 224.54L83.04 226H82.84ZM88.1472 226C87.5739 226 87.1005 225.94 86.7272 225.82C86.3539 225.687 86.0472 225.5 85.8072 225.26C85.5805 225.033 85.4139 224.753 85.3072 224.42C85.2139 224.087 85.1672 223.627 85.1672 223.04V213.94L86.7672 214.14V222.96C86.7672 223.333 86.7872 223.6 86.8272 223.76C86.8672 223.92 86.9472 224.067 87.0672 224.2C87.2139 224.373 87.4139 224.473 87.6672 224.5C87.9339 224.527 88.2139 224.54 88.5072 224.54L88.3472 226H88.1472ZM85.2072 213.18C84.9672 212.3 84.7139 211.593 84.4472 211.06C84.1939 210.513 83.9005 210.12 83.5672 209.88C83.2472 209.64 82.8539 209.52 82.3872 209.52C82.2405 209.52 82.0739 209.533 81.8872 209.56C81.7005 209.587 81.5205 209.633 81.3472 209.7L80.8672 208.32C81.1472 208.227 81.4272 208.167 81.7072 208.14C81.9872 208.1 82.2472 208.08 82.4872 208.08C82.9539 208.08 83.3872 208.153 83.7872 208.3C84.1872 208.433 84.5539 208.687 84.8872 209.06C85.2205 209.42 85.5339 209.933 85.8272 210.6C86.1205 211.267 86.3872 212.127 86.6272 213.18H85.2072ZM96.9202 226C96.1735 226 95.5002 225.867 94.9002 225.6C94.3135 225.32 93.7802 224.96 93.3002 224.52C92.8335 224.08 92.4068 223.6 92.0202 223.08C91.6468 222.547 91.3002 222.02 90.9802 221.5L91.2002 220.7C91.7735 220.633 92.3202 220.487 92.8402 220.26C93.3735 220.02 93.8068 219.687 94.1402 219.26C94.4868 218.833 94.6602 218.307 94.6602 217.68C94.6602 216.92 94.4468 216.353 94.0202 215.98C93.6068 215.593 93.0402 215.4 92.3202 215.4C91.8668 215.4 91.4402 215.447 91.0402 215.54C90.6535 215.633 90.2268 215.793 89.7602 216.02L89.2402 214.64C89.7335 214.427 90.2468 214.26 90.7802 214.14C91.3135 214.007 91.8468 213.94 92.3802 213.94C93.1668 213.94 93.8468 214.08 94.4202 214.36C95.0068 214.64 95.4602 215.053 95.7802 215.6C96.1135 216.147 96.2802 216.827 96.2802 217.64C96.2802 218.36 96.1268 219.007 95.8202 219.58C95.5268 220.14 95.1268 220.62 94.6202 221.02C94.1268 221.42 93.5668 221.727 92.9402 221.94C92.3268 222.14 91.7068 222.24 91.0802 222.24C90.4668 222.24 90.0068 222.147 89.7002 221.96C89.3935 221.76 89.2402 221.447 89.2402 221.02C89.2402 220.687 89.3535 220.433 89.5802 220.26C89.8068 220.073 90.1002 219.98 90.4602 219.98C90.8068 219.98 91.1402 220.053 91.4602 220.2C91.7935 220.347 92.1868 220.64 92.6402 221.08H92.3802C93.0068 221.987 93.5602 222.693 94.0402 223.2C94.5335 223.693 95.0202 224.033 95.5002 224.22C95.9802 224.407 96.5135 224.5 97.1002 224.5H97.3802L97.2002 226H96.9202ZM97.4602 219.98C97.0202 219.98 96.5868 219.927 96.1602 219.82C95.7468 219.713 95.3868 219.553 95.0802 219.34L95.2602 217.9C95.5402 218.073 95.8602 218.227 96.2202 218.36C96.5935 218.48 96.9868 218.54 97.4002 218.54C97.8135 218.54 98.1802 218.5 98.5002 218.42C98.8202 218.34 99.1335 218.22 99.4402 218.06L99.7602 219.46C99.4002 219.673 99.0268 219.813 98.6402 219.88C98.2535 219.947 97.8602 219.98 97.4602 219.98ZM102.566 226.2C101.713 226.2 100.979 226.06 100.366 225.78C99.7659 225.487 99.3059 225.087 98.9859 224.58C98.6659 224.06 98.5059 223.453 98.5059 222.76C98.5059 221.853 98.7926 221.107 99.3659 220.52C99.9393 219.92 100.733 219.353 101.746 218.82C102.293 218.527 102.733 218.273 103.066 218.06C103.413 217.847 103.659 217.633 103.806 217.42C103.966 217.207 104.046 216.953 104.046 216.66C104.046 216.207 103.886 215.887 103.566 215.7C103.246 215.5 102.833 215.4 102.326 215.4C101.859 215.4 101.426 215.44 101.026 215.52C100.639 215.6 100.246 215.733 99.8459 215.92L99.3459 214.56C99.7859 214.373 100.253 214.227 100.746 214.12C101.253 214 101.793 213.94 102.366 213.94C103.113 213.94 103.726 214.053 104.206 214.28C104.686 214.507 105.046 214.827 105.286 215.24C105.526 215.64 105.646 216.1 105.646 216.62C105.646 217.18 105.533 217.653 105.306 218.04C105.079 218.413 104.773 218.747 104.386 219.04C104.013 219.32 103.579 219.593 103.086 219.86C102.353 220.26 101.773 220.613 101.346 220.92C100.919 221.213 100.613 221.513 100.426 221.82C100.253 222.127 100.166 222.493 100.166 222.92C100.166 223.453 100.379 223.893 100.806 224.24C101.233 224.573 101.833 224.74 102.606 224.74C103.246 224.74 103.826 224.653 104.346 224.48C104.866 224.293 105.393 224.033 105.926 223.7L106.666 225.12C106.039 225.467 105.413 225.733 104.786 225.92C104.173 226.107 103.433 226.2 102.566 226.2ZM115.034 221.72C114.794 221.72 114.534 221.64 114.254 221.48C113.988 221.307 113.734 221.087 113.494 220.82C113.268 220.553 113.081 220.267 112.934 219.96C112.788 219.64 112.714 219.333 112.714 219.04C112.714 218.733 112.801 218.487 112.974 218.3C113.161 218.1 113.474 218 113.914 218H120.154V219.44H116.054V220.58C116.054 220.967 115.961 221.253 115.774 221.44C115.588 221.627 115.341 221.72 115.034 221.72ZM119.674 226.86V213.94L121.274 214.16V226.86H119.674ZM119.912 231.36C119.046 231.36 118.259 231.22 117.552 230.94C116.846 230.673 116.199 230.287 115.612 229.78C115.026 229.273 114.466 228.68 113.932 228L115.172 227.14C115.692 227.78 116.192 228.307 116.672 228.72C117.139 229.133 117.632 229.433 118.152 229.62C118.672 229.82 119.259 229.92 119.912 229.92C120.659 229.92 121.199 229.8 121.532 229.56C121.852 229.333 122.012 228.993 122.012 228.54C122.012 228.14 121.866 227.84 121.572 227.64C121.266 227.453 120.879 227.36 120.412 227.36C120.052 227.36 119.732 227.393 119.452 227.46C119.172 227.54 118.892 227.653 118.612 227.8L118.092 226.46C118.439 226.313 118.806 226.2 119.192 226.12C119.566 226.04 119.939 226 120.312 226C121.339 226 122.126 226.247 122.672 226.74C123.219 227.233 123.492 227.887 123.492 228.7C123.492 229.473 123.192 230.107 122.592 230.6C121.992 231.107 121.099 231.36 119.912 231.36ZM120.492 211.94C120.172 211.94 119.906 211.833 119.692 211.62C119.479 211.407 119.372 211.12 119.372 210.76C119.372 210.4 119.479 210.113 119.692 209.9C119.906 209.687 120.172 209.58 120.492 209.58C120.799 209.58 121.066 209.687 121.292 209.9C121.506 210.113 121.612 210.4 121.612 210.76C121.612 211.12 121.506 211.407 121.292 211.62C121.066 211.833 120.799 211.94 120.492 211.94ZM133.657 222.78C132.871 222.78 132.177 222.633 131.577 222.34C130.977 222.047 130.504 221.627 130.157 221.08C129.824 220.52 129.657 219.86 129.657 219.1C129.657 218.26 129.844 217.553 130.217 216.98C130.604 216.407 131.124 215.973 131.777 215.68C132.444 215.373 133.197 215.22 134.037 215.22C134.331 215.22 134.664 215.24 135.037 215.28C135.411 215.32 135.717 215.373 135.957 215.44L135.697 216.84C135.471 216.8 135.231 216.767 134.977 216.74C134.724 216.7 134.431 216.68 134.097 216.68C133.204 216.68 132.511 216.887 132.017 217.3C131.524 217.713 131.277 218.307 131.277 219.08C131.277 219.853 131.504 220.427 131.957 220.8C132.411 221.16 132.971 221.34 133.637 221.34C134.384 221.34 135.004 221.213 135.497 220.96C135.991 220.707 136.471 220.36 136.937 219.92V221.8C136.524 222.067 136.071 222.3 135.577 222.5C135.084 222.687 134.444 222.78 133.657 222.78ZM139.797 226C139.224 226 138.744 225.94 138.357 225.82C137.984 225.687 137.684 225.5 137.457 225.26C137.244 225.033 137.084 224.753 136.977 224.42C136.884 224.087 136.837 223.627 136.837 223.04V213.94L138.437 214.16V222.96C138.437 223.32 138.457 223.587 138.497 223.76C138.537 223.92 138.597 224.053 138.677 224.16C138.824 224.347 139.037 224.46 139.317 224.5C139.611 224.527 139.891 224.54 140.157 224.54L140.017 226H139.797ZM148.82 228.84L147.52 227.94C147.694 227.74 147.827 227.54 147.92 227.34C148.027 227.14 148.08 226.927 148.08 226.7C148.08 226.46 148.02 226.24 147.9 226.04C147.794 225.853 147.614 225.673 147.36 225.5C147.107 225.327 146.774 225.147 146.36 224.96L143.58 223.72C143.087 223.493 142.714 223.24 142.46 222.96C142.22 222.68 142.054 222.34 141.96 221.94C141.867 221.527 141.82 221.04 141.82 220.48V213.94L143.42 214.16V220.18C143.42 220.567 143.434 220.9 143.46 221.18C143.487 221.46 143.574 221.707 143.72 221.92C143.867 222.12 144.114 222.3 144.46 222.46L147.24 223.74C148.174 224.167 148.827 224.593 149.2 225.02C149.574 225.447 149.76 225.973 149.76 226.6C149.76 227.053 149.66 227.467 149.46 227.84C149.26 228.213 149.047 228.547 148.82 228.84ZM148.28 221.8C147.867 221.8 147.447 221.727 147.02 221.58C146.594 221.42 146.18 221.193 145.78 220.9C145.38 220.593 145.007 220.227 144.66 219.8L145.86 218.9C146.194 219.313 146.547 219.66 146.92 219.94C147.294 220.22 147.734 220.36 148.24 220.36C148.68 220.36 149.054 220.193 149.36 219.86C149.667 219.527 149.82 218.88 149.82 217.92C149.82 217.013 149.647 216.36 149.3 215.96C148.967 215.56 148.507 215.36 147.92 215.36C147.574 215.36 147.24 215.4 146.92 215.48C146.614 215.547 146.307 215.66 146 215.82L145.5 214.52C145.927 214.307 146.354 214.16 146.78 214.08C147.22 213.987 147.634 213.94 148.02 213.94C148.687 213.94 149.274 214.093 149.78 214.4C150.3 214.693 150.7 215.133 150.98 215.72C151.274 216.307 151.42 217.04 151.42 217.92C151.42 218.733 151.327 219.393 151.14 219.9C150.954 220.407 150.707 220.8 150.4 221.08C150.094 221.347 149.754 221.533 149.38 221.64C149.007 221.747 148.64 221.8 148.28 221.8ZM156.22 226C155.647 226 155.167 225.94 154.78 225.82C154.407 225.687 154.107 225.5 153.88 225.26C153.667 225.033 153.507 224.753 153.4 224.42C153.307 224.087 153.26 223.627 153.26 223.04V213.94L154.86 214.16V222.96C154.86 223.32 154.88 223.587 154.92 223.76C154.96 223.92 155.02 224.053 155.1 224.16C155.247 224.347 155.46 224.46 155.74 224.5C156.034 224.527 156.314 224.54 156.58 224.54L156.44 226H156.22ZM153.086 213.36C152.873 213 152.699 212.607 152.566 212.18C152.419 211.753 152.346 211.333 152.346 210.92C152.346 209.947 152.639 209.233 153.226 208.78C153.799 208.313 154.526 208.08 155.406 208.08C155.846 208.08 156.246 208.127 156.606 208.22C156.953 208.3 157.259 208.413 157.526 208.56L157.086 209.84C156.859 209.72 156.619 209.62 156.366 209.54C156.113 209.46 155.839 209.42 155.546 209.42C154.986 209.42 154.573 209.58 154.306 209.9C154.039 210.207 153.906 210.6 153.906 211.08C153.906 211.44 153.973 211.787 154.106 212.12C154.226 212.44 154.393 212.793 154.606 213.18L153.086 213.36ZM167.146 226C166.679 226 166.239 225.953 165.826 225.86C165.426 225.753 165.086 225.553 164.806 225.26C164.553 224.993 164.386 224.7 164.306 224.38C164.226 224.047 164.186 223.6 164.186 223.04V213.94L165.786 214.16V222.96C165.786 223.32 165.806 223.587 165.846 223.76C165.886 223.92 165.946 224.053 166.026 224.16C166.173 224.347 166.386 224.46 166.666 224.5C166.946 224.527 167.226 224.54 167.506 224.54L167.346 226H167.146ZM159.546 221.72C159.306 221.72 159.046 221.64 158.766 221.48C158.499 221.307 158.246 221.087 158.006 220.82C157.779 220.553 157.593 220.267 157.446 219.96C157.299 219.64 157.226 219.333 157.226 219.04C157.226 218.733 157.313 218.487 157.486 218.3C157.673 218.1 157.986 218 158.426 218H164.906V219.44H160.566V220.58C160.566 220.967 160.473 221.253 160.286 221.44C160.099 221.627 159.853 221.72 159.546 221.72Z" fill="#303030"/>
<rect x="30.35" y="246.35" width="125.3" height="39.3" rx="19.65" fill="white"/>
<path d="M88.04 276.62C87.2267 276.62 86.5 276.467 85.86 276.16C85.22 275.867 84.6267 275.413 84.08 274.8C83.5333 274.187 82.9933 273.407 82.46 272.46L82.9 270.56C83.1267 270.64 83.3467 270.713 83.56 270.78C83.7867 270.833 84.0133 270.873 84.24 270.9C84.48 270.927 84.7267 270.94 84.98 270.94C85.6333 270.94 86.1467 270.833 86.52 270.62C86.8933 270.393 87.08 270.073 87.08 269.66C87.08 269.447 87.02 269.233 86.9 269.02C86.78 268.807 86.5467 268.587 86.2 268.36C85.8667 268.133 85.36 267.893 84.68 267.64L84.18 267.02C83.7667 266.767 83.3733 266.493 83 266.2C82.6267 265.893 82.32 265.553 82.08 265.18C81.8533 264.793 81.74 264.367 81.74 263.9C81.74 262.993 82.1333 262.273 82.92 261.74C83.7067 261.207 84.7533 260.94 86.06 260.94C86.4067 260.94 86.78 260.96 87.18 261C87.58 261.027 87.98 261.093 88.38 261.2L87.92 263.38C87.5467 263.3 87.2267 263.247 86.96 263.22C86.7067 263.193 86.4467 263.18 86.18 263.18C85.5267 263.18 85.0733 263.28 84.82 263.48C84.58 263.667 84.46 263.893 84.46 264.16C84.46 264.373 84.5333 264.567 84.68 264.74C84.84 264.913 85.0733 265.093 85.38 265.28C85.7 265.453 86.0867 265.653 86.54 265.88L86.72 266.28C87.32 266.547 87.8533 266.84 88.32 267.16C88.7867 267.48 89.1533 267.86 89.42 268.3C89.6867 268.727 89.82 269.26 89.82 269.9C89.82 270.447 89.6733 270.973 89.38 271.48C89.0867 271.987 88.5933 272.4 87.9 272.72C87.22 273.04 86.2867 273.2 85.1 273.2C84.8067 273.2 84.5067 273.193 84.2 273.18C83.8933 273.167 83.6067 273.147 83.34 273.12C82.7533 273.053 82.26 272.947 81.86 272.8C81.4733 272.64 81.18 272.427 80.98 272.16C80.78 271.893 80.68 271.56 80.68 271.16C80.68 270.813 80.8067 270.513 81.06 270.26C81.3133 270.007 81.6533 269.88 82.08 269.88C82.4533 269.88 82.78 269.947 83.06 270.08C83.3533 270.2 83.62 270.373 83.86 270.6C84.1133 270.813 84.3733 271.06 84.64 271.34L84.5 271.54C84.9667 272.22 85.38 272.76 85.74 273.16C86.1 273.56 86.4667 273.847 86.84 274.02C87.2267 274.193 87.68 274.28 88.2 274.28H88.68L88.42 276.62H88.04ZM81.54 269.24L80.64 267.1L84.36 265.86L89.62 263.96L90.56 266.12L86.52 267.46L81.54 269.24ZM95.8603 273C95.047 273 94.4136 272.913 93.9603 272.74C93.5203 272.567 93.187 272.327 92.9603 272.02C92.7603 271.74 92.607 271.413 92.5003 271.04C92.407 270.653 92.3603 270.127 92.3603 269.46V260.94L95.0403 261.16V269.26C95.0403 269.553 95.0603 269.8 95.1003 270C95.1403 270.187 95.207 270.327 95.3003 270.42C95.447 270.553 95.607 270.64 95.7803 270.68C95.9536 270.707 96.227 270.72 96.6003 270.72L96.4003 273H95.8603ZM92.4203 260.18C92.287 259.487 92.1203 258.933 91.9203 258.52C91.7203 258.093 91.4736 257.787 91.1803 257.6C90.887 257.4 90.5136 257.3 90.0603 257.3C89.887 257.3 89.7003 257.313 89.5003 257.34C89.3003 257.353 89.107 257.393 88.9203 257.46L88.2403 255.36C88.507 255.267 88.8136 255.2 89.1603 255.16C89.507 255.107 89.8736 255.08 90.2603 255.08C90.7136 255.08 91.1536 255.14 91.5803 255.26C92.0203 255.367 92.4336 255.593 92.8203 255.94C93.2203 256.273 93.587 256.78 93.9203 257.46C94.267 258.14 94.5803 259.047 94.8603 260.18H92.4203ZM108.04 273C107.227 273 106.593 272.913 106.14 272.74C105.7 272.567 105.367 272.327 105.14 272.02C104.94 271.74 104.787 271.413 104.68 271.04C104.587 270.653 104.54 270.127 104.54 269.46V260.94L107.22 261.16V269.26C107.22 269.553 107.24 269.8 107.28 270C107.32 270.187 107.387 270.327 107.48 270.42C107.627 270.553 107.787 270.64 107.96 270.68C108.133 270.707 108.407 270.72 108.78 270.72L108.58 273H108.04ZM100.04 269.5C99.7335 269.5 99.4068 269.407 99.0602 269.22C98.7268 269.033 98.4068 268.787 98.1002 268.48C97.8068 268.173 97.5602 267.82 97.3602 267.42C97.1735 267.02 97.0802 266.613 97.0802 266.2C97.0802 265.813 97.1802 265.473 97.3802 265.18C97.5935 264.887 98.0068 264.74 98.6202 264.74H105.44V267.02H101.4V267.92C101.4 268.48 101.28 268.887 101.04 269.14C100.8 269.38 100.467 269.5 100.04 269.5ZM118.813 273.2C117.907 273.2 117.04 273.087 116.213 272.86C115.4 272.633 114.66 272.313 113.993 271.9L115.253 269.96C115.8 270.253 116.34 270.487 116.873 270.66C117.407 270.833 117.98 270.92 118.593 270.92C119.247 270.92 119.76 270.813 120.133 270.6C120.507 270.387 120.693 270.073 120.693 269.66C120.693 269.447 120.633 269.233 120.513 269.02C120.393 268.807 120.16 268.587 119.813 268.36C119.48 268.133 118.973 267.893 118.293 267.64L117.793 267.02C117.38 266.767 116.987 266.493 116.613 266.2C116.24 265.893 115.933 265.553 115.693 265.18C115.467 264.807 115.353 264.387 115.353 263.92C115.353 263.013 115.747 262.293 116.533 261.76C117.32 261.227 118.367 260.96 119.673 260.96C120.02 260.96 120.393 260.98 120.793 261.02C121.193 261.047 121.593 261.113 121.993 261.22L121.533 263.4C121.16 263.32 120.84 263.267 120.573 263.24C120.32 263.213 120.06 263.2 119.793 263.2C119.14 263.2 118.687 263.3 118.433 263.5C118.193 263.687 118.073 263.913 118.073 264.18C118.073 264.393 118.153 264.593 118.313 264.78C118.487 264.953 118.727 265.127 119.033 265.3C119.353 265.473 119.727 265.667 120.153 265.88L120.333 266.28C120.933 266.547 121.467 266.84 121.933 267.16C122.4 267.48 122.767 267.86 123.033 268.3C123.3 268.727 123.433 269.26 123.433 269.9C123.433 270.447 123.287 270.973 122.993 271.48C122.713 271.987 122.233 272.4 121.553 272.72C120.887 273.04 119.973 273.2 118.813 273.2ZM115.153 269.24L114.253 267.1L117.973 265.86L123.233 263.96L124.173 266.12L120.133 267.46L115.153 269.24ZM133.394 273C132.714 273 132.08 272.933 131.494 272.8C130.907 272.667 130.347 272.447 129.814 272.14C129.294 271.833 128.78 271.42 128.274 270.9C127.767 270.367 127.247 269.707 126.714 268.92L127.234 267.34C127.767 267.287 128.267 267.16 128.734 266.96C129.2 266.747 129.58 266.473 129.874 266.14C130.167 265.793 130.314 265.387 130.314 264.92C130.314 264.293 130.107 263.853 129.694 263.6C129.294 263.347 128.794 263.22 128.194 263.22C127.714 263.22 127.274 263.267 126.874 263.36C126.474 263.453 126.1 263.58 125.754 263.74L124.994 261.62C125.474 261.42 126.007 261.26 126.594 261.14C127.18 261.007 127.82 260.94 128.514 260.94C129.394 260.94 130.174 261.093 130.854 261.4C131.547 261.693 132.087 262.133 132.474 262.72C132.874 263.307 133.074 264.033 133.074 264.9C133.074 265.58 132.927 266.207 132.634 266.78C132.354 267.34 131.947 267.833 131.414 268.26C130.894 268.687 130.274 269.02 129.554 269.26C128.834 269.487 128.034 269.6 127.154 269.6C126.46 269.6 125.927 269.453 125.554 269.16C125.194 268.867 125.014 268.473 125.014 267.98C125.014 267.5 125.174 267.14 125.494 266.9C125.814 266.647 126.22 266.52 126.714 266.52C127.1 266.52 127.46 266.6 127.794 266.76C128.127 266.92 128.507 267.213 128.934 267.64L128.994 268.1C129.607 268.887 130.167 269.46 130.674 269.82C131.194 270.18 131.68 270.413 132.134 270.52C132.6 270.613 133.06 270.66 133.514 270.66H133.954L133.774 273H133.394ZM139.005 273C138.192 273 137.558 272.913 137.105 272.74C136.665 272.567 136.332 272.327 136.105 272.02C135.905 271.74 135.752 271.413 135.645 271.04C135.552 270.653 135.505 270.127 135.505 269.46V260.94L138.185 261.16V269.26C138.185 269.553 138.205 269.8 138.245 270C138.285 270.187 138.352 270.327 138.445 270.42C138.592 270.553 138.752 270.64 138.925 270.68C139.098 270.707 139.372 270.72 139.745 270.72L139.545 273H139.005ZM135.565 260.18C135.432 259.487 135.265 258.933 135.065 258.52C134.865 258.093 134.618 257.787 134.325 257.6C134.032 257.4 133.658 257.3 133.205 257.3C133.032 257.3 132.845 257.313 132.645 257.34C132.445 257.353 132.252 257.393 132.065 257.46L131.385 255.36C131.652 255.267 131.958 255.2 132.305 255.16C132.652 255.107 133.018 255.08 133.405 255.08C133.858 255.08 134.298 255.14 134.725 255.26C135.165 255.367 135.578 255.593 135.965 255.94C136.365 256.273 136.732 256.78 137.065 257.46C137.412 258.14 137.725 259.047 138.005 260.18H135.565Z" fill="#00930F"/>
<path d="M51.8958 265.24C53.3958 268.187 55.8125 270.604 58.7604 272.104L61.0521 269.812C61.3437 269.521 61.75 269.437 62.1146 269.552C63.2812 269.937 64.5312 270.146 65.8333 270.146C66.1096 270.146 66.3746 270.256 66.5699 270.451C66.7653 270.646 66.875 270.911 66.875 271.187V274.833C66.875 275.11 66.7653 275.375 66.5699 275.57C66.3746 275.765 66.1096 275.875 65.8333 275.875C61.1368 275.875 56.6326 274.009 53.3117 270.688C49.9907 267.367 48.125 262.863 48.125 258.167C48.125 257.89 48.2347 257.625 48.4301 257.43C48.6254 257.235 48.8904 257.125 49.1667 257.125H52.8125C53.0888 257.125 53.3537 257.235 53.5491 257.43C53.7444 257.625 53.8542 257.89 53.8542 258.167C53.8542 259.469 54.0625 260.719 54.4479 261.885C54.5625 262.25 54.4792 262.656 54.1875 262.948L51.8958 265.24Z" fill="#00930F"/>
<rect x="30.35" y="246.35" width="125.3" height="39.3" rx="19.65" stroke="#303030" stroke-width="0.7"/>
<rect x="14.5" y="71.5" width="401" height="228" rx="10.5" stroke="#303030"/>
<rect x="0.5" y="0.5" width="429" height="931" rx="19.5" stroke="#303030"/>
<defs>
<filter id="filter0_d_65_1368" x="253" y="823" width="158" height="73" filterUnits="userSpaceOnUse" color-interpolation-filters="sRGB">
<feFlood flood-opacity="0" result="BackgroundImageFix"/>
<feColorMatrix in="SourceAlpha" type="matrix" values="0 0 0 0 0 0 0 0 0 0 0 0 0 0 0 0 0 0 127 0" result="hardAlpha"/>
<feOffset dy="2"/>
<feGaussianBlur stdDeviation="2"/>
<feComposite in2="hardAlpha" operator="out"/>
<feColorMatrix type="matrix" values="0 0 0 0 0 0 0 0 0 0 0 0 0 0 0 0 0 0 0.25 0"/>
<feBlend mode="normal" in2="BackgroundImageFix" result="effect1_dropShadow_65_1368"/>
<feBlend mode="normal" in="SourceGraphic" in2="effect1_dropShadow_65_1368" result="shape"/>
</filter>
</defs>
</svg>
