<svg width="1080" height="1080" viewBox="0 0 1080 1080" fill="none" xmlns="http://www.w3.org/2000/svg">
<path d="M555.9 668.463C463.458 668.463 463.458 521.811 555.9 521.811C648.342 521.811 648.426 668.463 555.9 668.463Z" fill="url(#paint0_radial_102_2)"/>
<path d="M262.023 514.728C263.588 523.993 333.95 560.877 388.446 580.205C396.697 583.131 341.059 623.162 252.164 610.173C193.438 601.573 167.797 521.067 122.314 488.795C111.821 481.347 227.032 459.181 274.631 463.171C357.814 470.264 408.205 567.26 392.889 557.641C327.815 516.945 261.134 509.453 262.023 514.728Z" fill="url(#paint1_linear_102_2)"/>
<path d="M426.617 358.543C476.141 405.259 473.138 445.803 495.722 487.59C499.951 495.539 433.469 495.006 367.113 431.637C323.256 389.761 345.459 308.008 325.286 254.319C320.592 241.885 427.886 292.066 464.849 323.417C529.725 378.526 519.11 488.612 511.624 471.604C479.694 399.398 468.275 371.599 426.617 358.543Z" fill="url(#paint2_linear_102_2)"/>
<path d="M867.013 392.642C859.066 387.576 783.143 419.466 731.104 450.562C723.241 455.231 731.78 382.555 802.969 319.217C849.808 277.329 927.465 311.685 982.843 296.797C995.525 293.317 932.622 402.508 896.901 438.229C834.294 501.039 727.342 475.536 745.054 469.634C820.005 444.572 871.537 395.505 867.013 392.642Z" fill="url(#paint3_linear_102_2)"/>
<path d="M859.161 680.048C855.447 672.189 782.687 658.577 728.623 656.25C720.436 655.898 760.53 604.745 843.967 591.924C899.086 583.405 942.557 648.434 991.682 664.812C1002.02 668.237 907.063 719.654 860.849 729.665C784.037 746.262 714.063 673.33 730.354 677.677C799.189 696.163 861.187 684.527 859.161 680.048Z" fill="url(#paint4_linear_102_2)"/>
<path d="M961.62 540.414C959.21 534.294 905.21 519.679 864.615 514.704C858.483 513.956 891.467 477.769 955.023 473.059C997.014 469.977 1026.15 521.484 1062.3 536.848C1070.76 540.37 993.631 573.387 960.098 577.921C901.319 585.845 852.69 526.679 864.699 531.081C915.612 548.998 962.973 543.891 961.62 540.414Z" fill="url(#paint5_linear_102_2)"/>
<path d="M781.437 216.984C773.585 216.541 729.474 272.092 702.712 317.047C698.491 323.83 677.385 265.929 705.751 188.921C724.535 138.025 795.24 131.286 830.656 96.9711C838.043 89.9219 834.539 194.507 820.863 238.841C798.406 311.993 709.297 337.618 720.145 325.781C766.367 275.505 785.911 217.206 781.437 216.984Z" fill="url(#paint6_linear_102_2)"/>
<path d="M476.299 156.103C471.329 161.45 481.141 225.784 494.478 271.516C496.475 278.409 445.928 259.32 412.713 193.44C390.753 149.917 428.641 95.525 427.494 49.9698C427.197 39.542 494.393 106.836 514.017 140.859C548.295 200.2 511.681 278.85 510.534 264.137C505.437 201.482 479.144 153.099 476.299 156.103Z" fill="url(#paint7_linear_102_2)"/>
<path d="M605.242 147.07C610.687 151.488 608.492 216.039 600.725 262.608C599.543 269.634 646.695 244.582 671.558 175.744C688.021 130.236 644.838 81.5459 640.701 36.7C639.519 23.18 579.197 107.393 566.659 136.775C540.023 199.294 584.769 271.975 584.262 257.351C582.025 195.141 602.118 144.374 605.242 147.07Z" fill="url(#paint8_linear_102_2)"/>
<path d="M327.745 155.271C326.138 159.341 344.662 192.307 361.115 214.315C363.61 217.669 332.524 218.788 301.142 190.026C280.461 171.15 289.723 132.861 279.784 108.17C276.781 100.745 330.536 126.867 344.916 138.453C375.494 163.233 371.899 214.494 368.22 206.711C352.698 173.61 328.633 152.99 327.745 155.271Z" fill="url(#paint9_linear_102_2)"/>
<path d="M221.122 315.532C256.205 339.267 256.795 373.566 285.94 407.909C162.243 451.843 168.013 277.123 142.743 242.426C140.89 239.951 143.543 239.641 144.765 239.995C181.069 250.78 227.355 262.095 256.626 283.134C309.146 320.571 303.797 406.892 297.1 394.693C268.461 342.096 244.286 315.488 221.122 315.532Z" fill="url(#paint10_linear_102_2)"/>
<path d="M91.2849 627.253C94.8707 623.387 139.251 630.141 170.764 639.738C175.531 641.16 161.905 603.304 116.259 578.956C86.1382 562.872 49.1407 591.974 17.7961 591.574C10.5823 591.574 57.6623 641.426 81.0758 655.778C122.208 680.97 175.869 652.623 165.744 651.868C122.756 648.713 89.2177 629.386 91.2849 627.253Z" fill="url(#paint11_linear_102_2)"/>
<path d="M95.049 376.064C95.049 380.795 126.655 406.466 152.092 421.798C155.938 424.12 124.205 438.094 80.8939 422.324C52.33 411.942 47.0904 369.318 27.5266 348.51C23.0054 343.735 82.9221 344.83 106.373 351.839C147.402 364.061 163.248 417.549 156.529 411.066C127.712 384.081 95.1336 373.348 95.049 376.064Z" fill="url(#paint12_linear_102_2)"/>
<path d="M633.434 364.756C627.791 365.465 602.99 411.071 589.306 446.794C587.284 452.201 565.01 413.642 576 354.739C583.284 315.825 632.928 301.554 654.066 272.346C660.424 263.482 667.582 349.022 664.172 374.994C656.972 430.307 596.464 460.489 602.822 450.606C629.77 408.545 636.634 364.313 633.434 364.756Z" fill="url(#paint13_linear_102_2)"/>
<path d="M225.111 734.185C269.95 719.452 298.191 735.832 342.988 726.663C350.228 725.194 331.81 764.408 265.589 803.979C221.808 830.152 164.859 789.735 118.284 792.673C107.36 793.385 174.386 715.535 208.174 692.567C267.452 652.062 351.837 686.736 336.806 688.606C272.787 696.573 240.862 714.467 225.111 734.185Z" fill="url(#paint14_linear_102_2)"/>
<path d="M691.459 444.505C706.113 604.264 645.767 691.72 586.309 698.454C494.587 708.777 447.586 637.802 316.042 712.587C412.24 685.384 463.844 729.644 474.528 768.409C492.264 833.004 452.4 929.365 487.493 1033.39C534.24 766.15 786.855 832.827 691.459 444.505Z" fill="url(#paint15_linear_102_2)"/>
<path d="M494.526 1044.76C520.77 872.644 681.41 840.916 693.474 732.126C681.41 940.754 614.699 867.017 494.526 1044.76Z" fill="url(#paint16_linear_102_2)"/>
<path d="M662.779 885.6C618.967 963.607 552.21 961.881 511.579 1044.76C573.713 972.196 645.984 1010.98 662.779 885.6Z" fill="url(#paint17_linear_102_2)"/>
<defs>
<radialGradient id="paint0_radial_102_2" cx="0" cy="0" r="1" gradientUnits="userSpaceOnUse" gradientTransform="translate(548.126 524.982) scale(186.985 196.036)">
<stop stop-color="#C3996B"/>
<stop offset="0.37" stop-color="#A1774E"/>
<stop offset="0.77" stop-color="#815832"/>
<stop offset="1" stop-color="#754C28"/>
</radialGradient>
<linearGradient id="paint1_linear_102_2" x1="121.637" y1="537.736" x2="395.681" y2="537.736" gradientUnits="userSpaceOnUse">
<stop stop-color="#F6921E"/>
<stop offset="0.18" stop-color="#F58620"/>
<stop offset="0.71" stop-color="#F16626"/>
<stop offset="1" stop-color="#F05A28"/>
</linearGradient>
<linearGradient id="paint2_linear_102_2" x1="343.26" y1="257.783" x2="507.186" y2="495.836" gradientUnits="userSpaceOnUse">
<stop stop-color="#98C93C"/>
<stop offset="1" stop-color="#009345"/>
</linearGradient>
<linearGradient id="paint3_linear_102_2" x1="965.764" y1="287.768" x2="733.095" y2="456.604" gradientUnits="userSpaceOnUse">
<stop stop-color="#A2238D"/>
<stop offset="0.17" stop-color="#91268E"/>
<stop offset="0.48" stop-color="#792A8F"/>
<stop offset="0.76" stop-color="#6A2C90"/>
<stop offset="1" stop-color="#652D90"/>
</linearGradient>
<linearGradient id="paint4_linear_102_2" x1="983.326" y1="642.901" x2="697.06" y2="679.296" gradientUnits="userSpaceOnUse">
<stop stop-color="#ED3024"/>
<stop offset="1" stop-color="#AD1B1F"/>
</linearGradient>
<linearGradient id="paint5_linear_102_2" x1="1065.42" y1="509.402" x2="879.716" y2="534.397" gradientUnits="userSpaceOnUse">
<stop stop-color="#F6921E"/>
<stop offset="0.18" stop-color="#F58620"/>
<stop offset="0.71" stop-color="#F16626"/>
<stop offset="1" stop-color="#F05A28"/>
</linearGradient>
<linearGradient id="paint6_linear_102_2" x1="828.798" y1="96.173" x2="690.339" y2="324.865" gradientUnits="userSpaceOnUse">
<stop stop-color="#98C93C"/>
<stop offset="1" stop-color="#009345"/>
</linearGradient>
<linearGradient id="paint7_linear_102_2" x1="425.115" y1="56.6418" x2="525.173" y2="319.248" gradientUnits="userSpaceOnUse">
<stop stop-color="#1FC3F3"/>
<stop offset="0.17" stop-color="#1EB5E8"/>
<stop offset="0.48" stop-color="#1D8FCC"/>
<stop offset="0.92" stop-color="#1B549F"/>
<stop offset="1" stop-color="#1A4796"/>
</linearGradient>
<linearGradient id="paint8_linear_102_2" x1="645.471" y1="29.8958" x2="582.725" y2="297.618" gradientUnits="userSpaceOnUse">
<stop stop-color="#F6921E"/>
<stop offset="0.18" stop-color="#F58620"/>
<stop offset="0.71" stop-color="#F16626"/>
<stop offset="1" stop-color="#F05A28"/>
</linearGradient>
<linearGradient id="paint9_linear_102_2" x1="277.175" y1="108.857" x2="386.09" y2="226.329" gradientUnits="userSpaceOnUse">
<stop stop-color="#A2238D"/>
<stop offset="0.17" stop-color="#91268E"/>
<stop offset="0.48" stop-color="#792A8F"/>
<stop offset="0.76" stop-color="#6A2C90"/>
<stop offset="1" stop-color="#652D90"/>
</linearGradient>
<linearGradient id="paint10_linear_102_2" x1="141.985" y1="327.377" x2="301.144" y2="327.377" gradientUnits="userSpaceOnUse">
<stop stop-color="#EC1C24"/>
<stop offset="1" stop-color="#AD1B1F"/>
</linearGradient>
<linearGradient id="paint11_linear_102_2" x1="12.692" y1="584.347" x2="188.946" y2="635.671" gradientUnits="userSpaceOnUse">
<stop stop-color="#A2238D"/>
<stop offset="0.17" stop-color="#91268E"/>
<stop offset="0.48" stop-color="#792A8F"/>
<stop offset="0.76" stop-color="#6A2C90"/>
<stop offset="1" stop-color="#652D90"/>
</linearGradient>
<linearGradient id="paint12_linear_102_2" x1="19.0232" y1="343.435" x2="164.073" y2="421.351" gradientUnits="userSpaceOnUse">
<stop stop-color="#98C93C"/>
<stop offset="1" stop-color="#009345"/>
</linearGradient>
<linearGradient id="paint13_linear_102_2" x1="639.792" y1="278.995" x2="589.47" y2="478.645" gradientUnits="userSpaceOnUse">
<stop stop-color="#1FC3F3"/>
<stop offset="0.17" stop-color="#1EB5E8"/>
<stop offset="0.48" stop-color="#1D8FCC"/>
<stop offset="0.92" stop-color="#1B549F"/>
<stop offset="1" stop-color="#1A4796"/>
</linearGradient>
<linearGradient id="paint14_linear_102_2" x1="148.158" y1="786.758" x2="350.185" y2="706.122" gradientUnits="userSpaceOnUse">
<stop stop-color="#98C93C"/>
<stop offset="1" stop-color="#009345"/>
</linearGradient>
<linearGradient id="paint15_linear_102_2" x1="533.48" y1="540.113" x2="428.828" y2="1175.62" gradientUnits="userSpaceOnUse">
<stop stop-color="#C3996B"/>
<stop offset="0.37" stop-color="#A1774E"/>
<stop offset="0.77" stop-color="#815832"/>
<stop offset="1" stop-color="#754C28"/>
</linearGradient>
<linearGradient id="paint16_linear_102_2" x1="610.297" y1="757.828" x2="571.803" y2="1052.3" gradientUnits="userSpaceOnUse">
<stop stop-color="#98C93C"/>
<stop offset="1" stop-color="#009345"/>
</linearGradient>
<linearGradient id="paint17_linear_102_2" x1="639.283" y1="858.594" x2="504.121" y2="1138.26" gradientUnits="userSpaceOnUse">
<stop stop-color="#98C93C"/>
<stop offset="1" stop-color="#009345"/>
</linearGradient>
</defs>
</svg>
